/* XPM */
static char *image__1_1707839006[] = {
/* columns rows colors chars-per-pixel */
"60 60 228 2 ",
"   c None",
".  c #06070B",
"X  c #022018",
"o  c #042825",
"O  c #182D2F",
"+  c #0E3E30",
"@  c #173638",
"#  c #082D33",
"$  c #0A433A",
"%  c #19403B",
"&  c #1C4F4A",
"*  c #194B42",
"=  c #035344",
"-  c #0E5549",
";  c #055D4E",
":  c #0D5B4C",
">  c #075747",
",  c #145246",
"<  c #14554C",
"1  c #19554D",
"2  c #12594C",
"3  c #155747",
"4  c #0B5B54",
"5  c #075B5A",
"6  c #135451",
"7  c #1B5453",
"8  c #145A52",
"9  c #1C5D55",
"0  c #165D5A",
"q  c #0D4B48",
"w  c #244B44",
"e  c #21524B",
"r  c #255D5C",
"t  c #235856",
"y  c #0B675D",
"u  c #1D6559",
"i  c #156554",
"p  c #216456",
"a  c #195D60",
"s  c #2D5765",
"d  c #056563",
"f  c #0C646C",
"g  c #056A6A",
"h  c #0B6C6D",
"j  c #086A65",
"k  c #186563",
"l  c #176868",
"z  c #0C746D",
"x  c #10706C",
"c  c #036B75",
"v  c #096C73",
"b  c #086A75",
"n  c #037F77",
"m  c #1A7577",
"M  c #187579",
"N  c #136676",
"B  c #256769",
"V  c #326671",
"C  c #24787B",
"Z  c #2E7D7A",
"A  c #088A7E",
"S  c #238076",
"D  c #328677",
"F  c #217B83",
"G  c #1E8583",
"H  c #138C8D",
"J  c #1C878F",
"K  c #0C918E",
"L  c #1B8E91",
"P  c #0E9F98",
"I  c #1D9994",
"U  c #1F969C",
"Y  c #149C9A",
"T  c #1B9D9C",
"R  c #149794",
"E  c #1E9788",
"W  c #218482",
"Q  c #20858D",
"!  c #298587",
"~  c #278994",
"^  c #279A96",
"/  c #309E97",
"(  c #2D908F",
")  c #0EA596",
"_  c #12A195",
"`  c #1BA197",
"'  c #14A29B",
"]  c #1AA29C",
"[  c #16A99C",
"{  c #17A89B",
"}  c #28A798",
"|  c #35A39C",
" . c #1A9EA4",
".. c #239DA2",
"X. c #16A1A1",
"o. c #1DA5A1",
"O. c #16ACA2",
"+. c #1CACA3",
"@. c #1CB4A6",
"#. c #14BCA3",
"$. c #1CBAA5",
"%. c #1FB6A9",
"&. c #1CB9A9",
"*. c #20A6A4",
"=. c #22ABA4",
"-. c #2BADA8",
";. c #22B5AB",
":. c #23BAAC",
">. c #2BB9A8",
",. c #25B7A8",
"<. c #33B5A6",
"1. c #31BFB1",
"2. c #2FB3AA",
"3. c #509288",
"4. c #598284",
"5. c #669CA6",
"6. c #1AC3A9",
"7. c #2DC2AD",
"8. c #3AD3BB",
"9. c #36E6BF",
"0. c #4BCAB8",
"q. c #5BCBBF",
"w. c #4AD9BF",
"e. c #53D4BC",
"r. c #5FD0BE",
"t. c #60CABE",
"y. c #34CCC0",
"u. c #20D2C4",
"i. c #3CD9C5",
"p. c #3DE3CC",
"a. c #3DE2C0",
"s. c #48CCC4",
"d. c #58CFC2",
"f. c #43D0C2",
"g. c #4BD2C5",
"h. c #4BDBC6",
"j. c #46DECD",
"k. c #4ADECB",
"l. c #45D7C9",
"z. c #58DAC8",
"x. c #49DED3",
"c. c #52D8D1",
"v. c #7FCCC6",
"b. c #6ED3C7",
"n. c #67DAD3",
"m. c #72DFDC",
"M. c #68C8C6",
"N. c #44E1C4",
"B. c #43E3CD",
"V. c #4EE5CA",
"C. c #44E3D2",
"Z. c #4CE1D4",
"A. c #48ECD4",
"S. c #53E4D3",
"D. c #5DE4D4",
"F. c #56EDDA",
"G. c #58F1DB",
"H. c #5CE0C9",
"J. c #6AE7D8",
"K. c #7BE6D9",
"L. c #78E0E1",
"P. c #7CF6E1",
"I. c #86D3C8",
"U. c #90DED0",
"Y. c #A2D4C8",
"T. c #A6D8DF",
"R. c #8DEADE",
"E. c #84EFDB",
"W. c #92E3D4",
"Q. c #95EDD7",
"!. c #9AEAD5",
"~. c #94ECDC",
"^. c #99EBDB",
"/. c #97E5D9",
"(. c #8CF1D5",
"). c #9AF2DC",
"_. c #ACE7DA",
"`. c #A6EBDB",
"'. c #B8E7DF",
"]. c #86EFE0",
"[. c #95EEE3",
"{. c #9BECE5",
"}. c #86F1E3",
"|. c #89F2E9",
" X c #98F2E6",
".X c #85FCF4",
"XX c #A6E9E7",
"oX c #B5ECE0",
"OX c #BBE9E9",
"+X c #A8F7E9",
"@X c #B6F2E2",
"#X c #BBF5E8",
"$X c #B8EBF3",
"%X c #A5F9F2",
"&X c #B9FDFC",
"*X c #D1E1DE",
"=X c #DBDFEB",
"-X c #C9DAEE",
";X c #CCEEE7",
":X c #C4E1EF",
">X c #D2EBE4",
",X c #DFEEEB",
"<X c #D0EDEB",
"1X c #C4F2E4",
"2X c #C5F1EC",
"3X c #DDF0EE",
"4X c #C8ECFB",
"5X c #D2EBFC",
"6X c #C4FDFD",
"7X c #C8F8F5",
"8X c #DEF5F1",
"9X c #DBFDFD",
"0X c #D8F8F6",
"qX c #E5EEE7",
"wX c #E5ECEB",
"eX c #EAE8E6",
"rX c #F0EFEC",
"tX c #FBE8E2",
"yX c #E6ECF3",
"uX c #F4EAF2",
"iX c #FAEAF4",
"pX c #E5F5F4",
"aX c #EDF5FD",
"sX c #E4FCFE",
"dX c #EBFBFD",
"fX c #E8F6F7",
"gX c #F6F1FA",
"hX c #EDF6EB",
/* pixels */
"                                                                                                                        ",
"                                                                                                                        ",
"                                                                                                                        ",
"                                                                                                                        ",
"                                                                                                                        ",
"                                                                                                                        ",
"                                                                                                                        ",
"                                                                                                                        ",
"                                                                                                                        ",
"                                                                                                                        ",
"                                                                                                                        ",
"                                                                                                                        ",
"                                                                                                                        ",
"                                                                                                                        ",
"                                                  f v h h z h h h N                                                     ",
"                                                  f f j g M m m m M C                                                   ",
"                                                r &X5X5X-X5X4X$X$X! l t                                                 ",
"                                                s uXrXiXiXiXpX;X1Xh N g v V                                             ",
"                                                3.sXgXdXaXfXfX2X1Xj g g M s                                             ",
"                                            r yX&Xe.M.Y.Y.oX*X;X2X^ ( F g V                                             ",
"                                            l eX&X9.V.z.e.XX(.@X>X>.6./ 4 - 4 2                                         ",
"                                            k yX7Xw.9.N.N.{.!.@X#X7.7.} 4 : 4 <                                         ",
"                                        x ,X9Xn.I.}.|.K.K.$X'.oX_.8.6.} k i 0 :                                         ",
"                                        h wXsXs.b.!.!.Q.^.2X1X_.!.F.p.i.;.%.= : 1 1 <                                   ",
"                                        f 3XdXs.z.~.!.!._.#X#X).(.G.B.i.%.#.- : 8 6 2                                   ",
"                                        d 8XpXD.n.6X0XoX'.8X2XoX`.G.C.i.%.#.p $ 2 8 2                                   ",
"                                        M sX0Xl.q.aXrX1X>XrXfX;X#XG.Z.j.x.p.7 : < 2 2                                   ",
"                                    r 5.( 0X9X0.t.aXuX1X>XiXfX>X;XF.Z.j.x.p.7 : 8 8 2                                   ",
"                                    j 9XpXz.J.rXaX0.0.b.I.2X<X2XoXZ.l.j.Z.B.p i < , <                                   ",
"                                    h 9XwXD.D.eX9XN.A.w.z. XW.!.Q.{ ) _ 7.:.Z C 0 6 , w                                 ",
"                                    c sXqXA.S.,X9XN.p.h.r.{.^.^.Q.O.=.*.&.&.` T W 7 < : u                               ",
"                                    c sXwXS.V.wX2Xh.i.E.}.[.~.~.^.o.X.X.%.&.T T W 7 2 : p                               ",
"                                    c aXqXA.i.8X2XN.p.R.~.[.R.^.(.L K X.:.%.Y T G 7 2 : u                               ",
"                                    b dXhX+XXX X%Xh.g.^.^.~.~.R.^.J H T ;.;.' ' W 7 2 : p                               ",
"                                    c aXtXgXaX6.} E.[.^.~.^.[.[.{.Q H Y ;.=.' ' W 7 < : u                               ",
"                                    c aXrXhX9X:.-.R.(.Q./.R.P.e.e.Q H R ;.;.' ' W 7 2 2 u                               ",
"                                    l 6X:Xm.K.>.7.K.%XW.R./.|.g.p.H J ~ ..' ' ' W 7 2 : <                               ",
"                                    p 6X6XA.V.p.D.-./ / | n..Xg.C.H H R  .Y  .X.W 7 2 : -                               ",
"                                    o 4.T.S.g.p.k.[ ' X. .' +.} ` ] o.o.o.*.Y ' W 7 3 : -                               ",
"                                      e k c.w.{ ;.] [ ' ' P _ ' { ;.:.;.;.,.H H C 7 : : -                               ",
"                                      w y c.i.T o.:.:.@.@.+.' ) ' :.;.%.;.,.H L C 6 : : -                               ",
"                                      % 4 s.i.R +.;.;.;.;.;.;.;.+.O.O.%.%.;.H H C 7 : : -                               ",
"                                      $ ; g.8.I o.;.%.%.;.%.;.;.:._ X.+.;.%.5 y B & < - p                               ",
"                                      $ 2 N.u. .*.%.#.&.$.%.$.$.%.' X.*.%.#.8 : > i @                                   ",
"                                          z O.U Y ;.&.%.%.%.%.%.$.' ' ' :.&.7 ; < t e                                   ",
"                                          7 5 ( I ,.&.:.$.$.$.;.%.X.{ 2..XJ.8 2 : t *                                   ",
"                                          w 0 ! A j.B.V.G.h.,._ >..._ } ~.{.: < 4 < @                                   ",
"                                            # C A f.B.l.d.|.}.E.K.*.) <.^.W.4 2 : - O                                   ",
"                                              a 5 d <.f.M. X^.~.).-.,.E u I.: < 2 2 O                                   ",
"                                              1 : : : ; > D U.+X!.$.#.} 9 2 8 3 X                                       ",
"                                                , u 8 : : 2 : 8 2 ^ 7.E 4 < < e                                         ",
"                                                      $ < 1 2 : : t j k 6 8 $ o                                         ",
"                                                            , p 2 1 3 2 9 *                                             ",
"                                                                                                                        ",
"                                                                                                                        ",
"                                                                                                                        ",
"                                                                                                                        ",
"                                                                                                                        ",
"                                                                                                                        ",
"                                                                                                      . . . . . . . . . "
};
