/* XPM */
static char *_84532e995bd45f589da53f5f7d6d0d7hRMfuN8mYoKYiCni[] = {
/* columns rows colors chars-per-pixel */
"60 60 128 2 ",
"   c None",
".  c #010104",
"X  c #05030B",
"o  c #09040E",
"O  c #0D0C0E",
"+  c #060311",
"@  c #0A0513",
"#  c #0D0A15",
"$  c #0B0519",
"%  c #0F0B1B",
"&  c #110C16",
"*  c #120C1C",
"=  c #101012",
"-  c #14121C",
";  c #140D22",
":  c #190E25",
">  c #160E28",
",  c #1A0E2B",
"<  c #161123",
"1  c #191326",
"2  c #1D1926",
"3  c #1E132B",
"4  c #1C162A",
"5  c #1C142C",
"6  c #1B132B",
"7  c #1D1829",
"8  c #1F1A29",
"9  c #1E182D",
"0  c #1E1631",
"q  c #1E1931",
"w  c #211329",
"e  c #221B2E",
"r  c #211632",
"t  c #201A31",
"y  c #211833",
"u  c #201933",
"i  c #211A32",
"p  c #211B32",
"a  c #211B33",
"s  c #231A33",
"d  c #201934",
"f  c #211B34",
"g  c #211836",
"h  c #241B37",
"j  c #241E34",
"k  c #241E37",
"l  c #221A34",
"z  c #291B37",
"x  c #241A38",
"c  c #261D39",
"v  c #241D3A",
"b  c #251E3B",
"n  c #271E3A",
"m  c #261A3C",
"M  c #271B3D",
"N  c #241F3C",
"B  c #261F3C",
"V  c #261F3D",
"C  c #271F3F",
"Z  c #261E3B",
"A  c #281D3D",
"S  c #291D3E",
"D  c #291F3E",
"F  c #291E3D",
"G  c #262036",
"H  c #27203B",
"J  c #26203A",
"K  c #2B213D",
"L  c #29223C",
"P  c #28213E",
"I  c #28213F",
"U  c #2B203F",
"Y  c #2A213D",
"T  c #261E40",
"R  c #271F41",
"E  c #281E41",
"W  c #291E41",
"Q  c #281D43",
"!  c #2B1F42",
"~  c #2C1F40",
"^  c #2D1E43",
"/  c #291E44",
"(  c #2F1D44",
")  c #2A1E42",
"_  c #272040",
"`  c #2C2140",
"'  c #2D2241",
"]  c #2E2242",
"[  c #2C2143",
"{  c #322045",
"}  c #302047",
"|  c #312345",
" . c #322B43",
".. c #352B47",
"X. c #332D47",
"o. c #342846",
"O. c #34214A",
"+. c #322549",
"@. c #35234F",
"#. c #33254B",
"$. c #38274D",
"%. c #322B4A",
"&. c #332C4A",
"*. c #37294D",
"=. c #35294C",
"-. c #392A4E",
";. c #3A2A4E",
":. c #3B3A42",
">. c #362651",
",. c #3C2656",
"<. c #3D2757",
"1. c #3D2756",
"2. c #352B51",
"3. c #362953",
"4. c #382951",
"5. c #3A2850",
"6. c #3A2A52",
"7. c #3E2956",
"8. c #3B2E57",
"9. c #3B2954",
"0. c #3D2758",
"q. c #3C2A59",
"w. c #3C2A58",
"e. c #412756",
"r. c #403357",
"t. c #47355E",
"y. c #47365E",
"u. c #48345E",
/* pixels */
"                                                                                                                        ",
"                                X . X . o # o ^ g X * } W % . . o . @ @ ; O.u X > } g . -                               ",
"                                . ;.q.U . X / 1 % . * U . . . 8.0.T . 1 N ; * . ; * X o -                               ",
"                                1 W & * N X * # . . X * X . 7.W * * b # o * . . o # . H $                               ",
"                                % * X o @ X X X ' u X X . @ 1 * X X @ . . . ' u X . . < @                               ",
"                                * + * N ,.5.k . U . X . . # * X ; F ,.@.@ . W . X . X # .                               ",
"                                . * 2.; * . ; . . . X *.g X . > 5.% & # + . . . @ ' X % k                               ",
"                                u X . * X F b # . * @ * + u * X . * @ N > o . * @ # + u X                               ",
"                                & X . X X X * X . . * X # 1 X X . X X @ X X . . * . N X X                               ",
"                                * m @ o @ @ ; +.^ 5 * b * X x m @ o @ & 1 5.( 8 ; 6 @ o X                               ",
"                                F > X X X . * * X X X . h u / & X X X @ * ; X X X 6 + u b                               ",
"                                * @ X * X U X # * . X . . X U X X * $ 7 X * * . X . . & o                               ",
"      # = # - 8 - - r.2 - ..t.%.X @ X . . * < + + X X . . o + @ + . . * % X X . . . . X . # O = 2 - O t.X.-  .u.&.      ",
"      . & . * X . 9.& X U 9.* X .                                                     X . X * o o . 7.; X > ,.* X       ",
"      @ ;.F X X H G * . * b . X r                                                     . X 9.;.q X H N * * X h . X       ",
"      W * * . . . . . X X X . X *                                                     . W * * # . . . . . X X . X       ",
"      * o . & o X X : ( X X . . X                                                     & * * . X o X X X 5.5 X . .       ",
"      # 1 g +.' q X o X X 6 * X .                                                     & * o r b | g X . 6 . : - X       ",
"      + } ; * * F H X . _ * * * 0                                                     X . 9.n * * F _ X . ; * * *       ",
"      & . % X T _ * X # X * X @ .                                                     N * . . # b N * X . # * X X       ",
"      # . % . X * @ =.U * # # 1 .                                                     X # X X @ X * X =...6 * % 1       ",
"      7.h . * * * W o.+ & 9.* X u                                                     $ e.9.& X * * W 9.* # $.* X       ",
"      b o X X . * * & o X . N X +                                                     N F * X X X * * & X X . b X       ",
"      + # . X * H * . X X X X X .                                                     * + . * . * U * . o X X X X       ",
"      . . . X & X X >.$ X W 9.n .                                                     + . . . X * o . ,.H X N 9.F       ",
"      . 5 % # X % *.& . u *.# X @                                                     X . , 0 # o # *.* @ * *.# X       ",
"      5.5 & b X * X # . X & X . >                                                     . 3.F * 1 % * X * . . * X .       ",
"      H * * . . . . . . X X . . @                                                     . L * * # . . . . X X X . X       ",
"      & @ 9 *.o.k X * > . . . . X                                                     * * o % b { h X X | # . . .       ",
"      . ' > * . * . . . . 5./ . ;                                                     X . * ,.% X * . . . . *.F .       ",
"      @ K ; * 1 W G X X H * % % q                                                     @ . 5.k * < F b X . * < * *       ",
"      X . X X + * X X . * X . H .                                                     ; o X . X o * X X . o @ . N       ",
"      * o * . o * + 9.[ & * * ; X                                                     . * X X @ X * X 7.5.g & * *       ",
"      +.1 X @ @ * 0 u X @ k u X *                                                     6 +.F @ X @ * 4 F # @ u q X       ",
"      H X * X U X X * . o . . X .                                                     . T X + # b X X * * . . . X       ",
"      X @ . X * H * . o X X X o .                                                     % X . % . % L ; . X X X o o       ",
"      . # . % @ . ;.* X h *.> # .                                                     X . X # X @ . ;.: $ * *., @       ",
"      X 9./ . o N W * X * _ . X M                                                     X . ,.2.9 X b W * % X b . X       ",
"      2.1 * b X & X o . X * X . %                                                     . 2.N * 1 @ & X * . X # X .       ",
"      ; o . ; . X . > ' + X . . o                                                     ; * * . X X . X X 5.9 X . .       ",
"      & # N q.9.W X % + X . . X +                                                     ; * X ; } 9.W X . H . . . o       ",
"      X [ > * @ 5 < . . < F u o h                                                     X . z %.* o 7 ; . . o F g @       ",
"      * . * X T T * X @ . * X + .                                                     N ; . . # b T * X . # * X X       ",
"      + . X X X * X X . * X . F .                                                     * X X . X X * X X . o + . _       ",
"      $.s . % & * n +.* * *.* + 0                                                     X >.$.% o & * k 7., # *.* @       ",
"      b @ X X . * % % X X . H + X                                                     T N * X X . * * * X X . b X       ",
"      G X # X b + X * . X . . X .                                                     X H X X # v @ @ % % X . . X       ",
"                                X . . . X % X F / X X Q $.* . . . . X @ . 8.[ X @ >.W . X                               ",
"                                . X % . % X % r + X F 9.# X . X % . * . *.* X X / m X * .                               ",
"                                # } } b * X u ; # . # h X . 1 +.[ u * < q * # . % * . e X                               ",
"                                % > * * . . . . . X X X . . b * * * . . . . . o X . X - *                               ",
"                                * * . . & o X X 6.W X X . % * * . . * X X X 9.b X . . # .                               ",
"                                X & *.> 1 * * . . . . =.e X . * *.1 1 ; X . o . + K . % +                               ",
"                                . *.W * % * W * . . N * * X . 9.N * * 0 T X . . b * * * X                               ",
"                                u . . % X H h @ . * + * X u * . . & o b * X . & o @ @ X 1                               ",
"                                + X X * . X % U ;.F * * * X & X X & . # o 5.;.H * * * + @                               ",
"                                w ,.; . * * > *.> X * 5.* X 9.7.; . * * F 9.* X , h X 6 @                               ",
"                                5 % X @ X < # & @ X X . * - F % X @ + * # * @ X X - o * -                               ",
"                                % . * . o * b o X X X X X # X . * . X 0 ; . X X X X X :.-                               ",
"                                                                                                                        "
};
