/* XPM */
static char *result[] = {
/* columns rows colors chars-per-pixel */
"60 60 61 1 ",
"  c #0B0A06",
". c #0E0C0B",
"X c #120E0C",
"o c #15110D",
"O c #18120C",
"+ c #171411",
"@ c #191513",
"# c #1E1A16",
"$ c #1F1B18",
"% c #2C0101",
"& c #370305",
"* c #3E0001",
"= c #231B15",
"- c #231E1A",
"; c #281F1B",
": c #361212",
"> c #26201D",
", c #28221D",
"< c #2D2623",
"1 c #2F2924",
"2 c #312722",
"3 c #312B25",
"4 c #342D29",
"5 c #382F29",
"6 c #36312B",
"7 c #3C322C",
"8 c #3D3431",
"9 c #410000",
"0 c #490100",
"q c #5B0707",
"w c #5C090A",
"e c #650202",
"r c #690102",
"t c #5B2E2D",
"y c #40362E",
"u c #413731",
"i c #463D34",
"p c #483E36",
"a c #483F38",
"s c #40403C",
"d c #4E443C",
"f c #514539",
"g c #494241",
"h c #4C4848",
"j c #594F46",
"k c #5D5247",
"l c #5F5448",
"z c #555456",
"x c #61574B",
"c c #685F57",
"v c #666155",
"b c #676059",
"n c #6A645E",
"m c #626162",
"M c #BA1B1A",
"N c #D90C0D",
"B c #D7110E",
"V c #D60E13",
"C c #D51211",
"Z c #D81010",
"A c None",
/* pixels */
"AAAAAAAAAAAAAAAAAAAAAAAAAAAAAAAAAAAAAAAAAAAAAAAAAAAAAAAAAAAA",
"AAAAAAAAAAAAAAAAAAAAAAAAAAAAAAAAAAAAAAAAAAAAAAAAAAAAAAAAAAAA",
"AAAAAAAAAAAAAAAAAAAAAAAAAAAAAAAAAAAAAAAAAAAAAAAAAAAAAAAAAAAA",
"AAAAAAAAAAAAAAAAAAAAAAAAAAAAAAAAAAAAAAAAAAAAAAAAAAAAAAAAAAAA",
"AAAAAAAAAAAAAAAAAAAAAAAAAAAAAAAAAAAAAAAAAAAAAAAAAAAAAAAAAAAA",
"AAAAAAAAAAAAAAAAAAAAAAAAAAAAAAAAAAAAAAAAAAAAAAAAAAAAAAAAAAAA",
"AAAAAAAAAAAAAAAAAAAAAAAAAAAAAAAAAAAAAAAAp33<AAAAAAAAAAAAAAAA",
"AAAAAAAAAAAAAAAAAAAAAAAAAAAAAAAAAAAAAA77u33ppgAAAAAAAAAAAAAA",
"AAAAAAAAAAAAAAAAAAAAAAAAAAAAAAAAAAAAiii7s5uff7p=AAAAAAAAAAAA",
"AAAAAAAAAAAAAAAAAAAAAAAAAAAAAAAAAAappdd77777pippiAAAAAAAAAAA",
"AAAAAAAAAAAAAAAAAAAAAAAAAAAAAAAAbppiddddf2i82ip777iAAAAAAAAA",
"AAAAAAAAAAAAAAAAAAAAAAAAAAAAAAA77fdpdddfdfdffpppppi7AAAAAAAA",
"AAAAAAAAAAAAAAAAAAAAAAAAAAAAA37iddipllldddddsp77777i77AAAAAA",
"AAAAAAAAAAAAAAAAAAAAAAAAAAA8737y33pdjdddfd77u77pp77i,>AAAAAA",
"AAAAAAAAAAAAAAAAAAAAAAAAAAA257775pipddiidpf773if77=#,-AAAAAA",
"AAAAAAAAAAAAAAAAAAAAAAAAAAA<2<775y7pddxldfsdf,is>=$#$>AAAAAA",
"AAAAAAAAAAAAAAAAAAAAAAAAAAA<42<<85apuxxafgff778>>>$$#>AAAAAA",
"AAAAAAAAAAAAAAAAAAAAAAAAAAA<>>><3<37aiaaui5y7>,,,@#3><AAAAAA",
"AAAAAAAAAAAAAAAAAAAAAAAAAA3332;34<15u58u524;>>,,,>1<-#AAAAAA",
"AAAAAAAAAAAAAAAAAAA>>>AAs3377y78>><1;3257=<;1,,>,,>>>#AAAAAA",
"AAAAAAAAAAAAAAAAA32;3333-785338133>>-<7#-->3<>,,,,,>##AAAAAA",
"AAAAAAAAAAAAAAAugd37i77i777577713>>>O<7##<>1@-,,,,###XAAAAAA",
"AAAAAAAAAAAAAAif7747iddu7711377411XXX17>><##@#@>,>#+XXAAAAAA",
"AAAAAAAAAAAAddj7y7737733778>>233#XX@X<7>@####@<>,$+@-XAAAAAA",
"AAAAAAAAAAA>hfkduad3duip7p3>>>X@#@@@3<<@#@#$$>>>##@$#XAAAAAA",
"AAAAAAAAAAA-rkkkppdfddddfa33#XX##@@13<7@#@#@>>@#$##$oXAAAAAA",
"AAAAAAAAAAAiri7fddufiiaiap=>#@@#3313377-=#$@##@-@#oooAAAAAAA",
"AAAAAAAAA->p7&777lkfxxdf8>---@@#413338=<>36##$--##o=AAAAAAAA",
"AAAAAA>>>#-eu*fi7i&g#dg>-<#<>##13338y>>>>477;#-##;AAAAAAAAAA",
"AAAA<#23>##ei7piit9;<#->@@##@##433--;,>33777>333AAAAAAAAAAAA",
"AA<33#3=314*76pipr7;>$@$@##$###->><;;o77777;;7377hAAAAAAAAAA",
"AA311##<=<<37Zrii5yau<@@##@####-;;4533=>77;>;777773>AAAAAAAA",
"AA<>,#,$$,4,frrrC7sMf:o+#X@#@$>7734723###;;41>88131;;3AAAAAA",
"AA6>,311$>47ie*eBriMN0o>.o@#@@<,733777#=#O;7178@347->377AAAA",
"AAAA34<3$-o77p9*rr7qB%>,,<@@oo47777>=;=>oo#67778@@7><777>1AA",
"AA4$><<66AA6nisir9sqe%<1>1@@oo3;,74=>>>AAo-#-7171+..-533>347",
"A44$-<<OAAA@nX5i7sy2,>3711@@oo>>>,=$733AAA>---3833@@@+X-<757",
"A5<<##AAAAA#vO775sy52> s1>@+.><77>=,773AAAA->--87>;3@@XX 777",
"A<<<.AAAAAAAvo773o777>  >>ooo4<733A37777AAAA--#-->233A.X+oo7",
"A1<AAAAAAAAAAA637on,7#  ##XAA7777yA33177AAAAAA##Oo7777AA++7A",
"AAAAAAAAAAAAAAAA7ov<4#X #AAAA75377A33337AAAAAAA++--113-AAAAA",
"AAAAAAAAAAAAAAAAAAvoAOX AAAAA53377A63773AAAAAAAA@--#3>;33AAA",
"AAAAAAAAAAAAAAAAAAAAAAAAAAAAA7776AAA,4733AAAAAAAAA--++8757AA",
"AAAAAAAAAAAAAAAAAAAAAAAAAAAAA6-73AAA,>>>;AAAAAAAAAA-o+#777AA",
"AAAAAAAAAAAAAAAAAAAAAAAAAAAA<=>>>AAA,-7u3AAAAAAAAAAA+>#-7AAA",
"AAAAAAAAAAAAAAAAAAAAAAAAAAAA=77>>AAAA=4714AAAAAAAAAAA--->AAA",
"AAAAAAAAAAAAAAAAAAAAAAAAAAAA55733AAAA4>377AAAAAAAAAAAAAAAAAA",
"AAAAAAAAAAAAAAAAAAAAAAAAAAAA53373AAAA3,137AAAAAAAAAAAAAAAAAA",
"AAAAAAAAAAAAAAAAAAAAAAAAAAAA6>37AAAAAm>>>>zAAAAAAAAAAAAAAAAA",
"AAAAAAAAAAAAAAAAAAAAAAAAAAAA>>>;AAAAAA==733AAAAAAAAAAAAAAAAA",
"AAAAAAAAAAAAAAAAAAAAAAAAAAAA,7>>AAAAAA#>773AAAAAAAAAAAAAAAAA",
"AAAAAAAAAAAAAAAAAAAAAAAAAAA4<733AAAAAA6,777AAAAAAAAAAAAAAAAA",
"AAAAAAAAAAAAAAAAAAAAAAAAAAA77781AAAAAAA3477AAAAAAAAAAAAAAAAA",
"AAAAAAAAAAAAAAAAAAAAAAAAAAA7.776AAAAAAA3..XAAAAAAAAAAAAAAAAA",
"AAAAAAAAAAAAAAAAAAAAAAAAAAAX..X8AAAAAAAoXXAAAAAAAAAAAAAAAAAA",
"AAAAAAAAAAAAAAAAAAAAAAAAAAAA .XAAAAAAAAAAAAAAAAAAAAAAAAAAAAA",
"AAAAAAAAAAAAAAAAAAAAAAAAAAAAAAAAAAAAAAAAAAAAAAAAAAAAAAAAAAAA",
"AAAAAAAAAAAAAAAAAAAAAAAAAAAAAAAAAAAAAAAAAAAAAAAAAAAAAAAAAAAA",
"AAAAAAAAAAAAAAAAAAAAAAAAAAAAAAAAAAAAAAAAAAAAAAAAAAAAAAAAAAAA",
"AAAAAAAAAAAAAAAAAAAAAAAAAAAAAAAAAAAAAAAAAAAAAAAAAAAAAAAAAAAA"
};
