/* XPM */
static char *ae717b4aa327477c99139f42065f646bvqdgfy0kTo5ApEHi[] = {
/* columns rows colors chars-per-pixel */
"60 60 25 1 ",
"  c #5A595A",
". c #5C5B5C",
"X c gray39",
"o c #676866",
"O c #696A68",
"+ c #6B6D6A",
"@ c #6C6E6B",
"# c #6E6F6D",
"$ c #70716F",
"% c #727272",
"& c #737472",
"* c #757474",
"= c #787678",
"- c gray48",
"; c #7D7B7D",
": c gray50",
"> c #828182",
", c #848284",
"< c #868586",
"1 c #888788",
"2 c #8B898B",
"3 c #8D8B8D",
"4 c #8F8D8F",
"5 c #999598",
"6 c #9D999C",
/* pixels */
"222666666666666666666666666666666666666666666422222222222   ",
"222666666666666666666666666666666666666666666422222222222   ",
"222666666666666666666666666666666666666666666422222222222   ",
"555<<<14441<<<34444444444444444444<<<<<<<<<<<>>>>>>>>2222   ",
"666:::>222>:::12222222222222222222:::::::::::::::::::2222   ",
"666:::>222>:::12222222222222222222:::::::::::::::::::2222   ",
"666:::>222>:::12222222222222222222:::::::::::::::::::2222   ",
"6662221:::1222>::::::::::::::::::::::>2222222;===::::::::   ",
"6662221:::1222>::::::::::::::::::::::>2222222;===::::::::   ",
"6662221:::1222>::::::::::::::::::::::>2222222;===::::::::   ",
"6662221:::1222>::::::::::::::::::::::>2222222;===::::::::   ",
"666::::===::::12222222::::====::::2221::::===::::-=======   ",
"666::::===::::12222222::::====::::2221::::===::::-=======   ",
"666::::===::::12222222::::====::::2221::::===::::-=======   ",
"666::::===::::12222222::::====::::2221::::===::::-=======   ",
"666===*+++*=======::::2222::::::::=======-:::-===#+++::::   ",
"666===*+++*=======::::2222::::::::=======-:::-===#+++::::   ",
"666===*+++*=======::::2222::::::::=======-:::-===#+++::::   ",
"666===*+++*=======::::2222::::::::=======-:::-===#+++::::   ",
"222===*+++-:::::::================:::>222<===#+++-:::====   ",
"222===*+++-:::::::================:::>222<===#+++-:::====   ",
"222===*+++-:::::::================:::>222<===#+++-:::====   ",
">>>***%+++*-------****************---:>>>:***#+++*---****   ",
"+++++++++++++++++++++++++++++++++++++++++++++++++++++++++   ",
"+++++++++++++++++++++++++++++++++++++++++++++++++++++++++   ",
"+++++++++++++++++++++++++++++++++++++++++++++++++++++++++   ",
"OOOOOOOoooooooOOOOOOOOooooooooooooOOOOOOOOOOOOOOOOOOOOOOO...",
"XXXXXXX       XXXXXXXX            XXXXXXXXXXXXXXXXXXXXXXXXXX",
"XXXXXXX       XXXXXXXX            XXXXXXXXXXXXXXXXXXXXXXXXXX",
"XXXXXXX       XXXXXXXX            XXXXXXXXXXXXXXXXXXXXXXXXXX",
"3333333222222233333333::::    ::::33333333333333333333333333",
"66666666666666666666662222    222266666666666666666666666666",
"66666666666666666666662222    222266666666666666666666666666",
"66666666666666666666662222    222266666666666666666666666666",
"===222222222222222::::::::    66662221:::>222222222222222:::",
"===222222222222222::::::::    66662221:::>222222222222222:::",
"===222222222222222::::::::    66662221:::>222222222222222:::",
"===222222222222222::::::::    66662221:::>222222222222222:::",
"222:::::::1222>:::::::====    6666::::===;222;===<222:::::::",
"222:::::::1222>:::::::====    6666::::===;222;===<222:::::::",
"222:::::::1222>:::::::====    6666::::===;222;===<222:::::::",
"222:::::::1222>:::::::====    6666::::===;222;===<222:::::::",
":::2222222>:::::::====++++    6666===-::::===::::::::::::222",
":::2222222>:::::::====++++    6666===-::::===::::::::::::222",
":::2222222>:::::::====++++    6666===-::::===::::::::::::222",
":::2222222>:::::::====++++    6666===-::::===::::::::::::222",
"::::::::::::::-===::::====    2222=======-:::1222>:::=======",
"::::::::::::::-===::::====    2222=======-:::1222>:::=======",
"::::::::::::::-===::::====    2222=======-:::1222>:::=======",
":::::::---::::****----====    2222--------:::,<<<>:::----===",
"======*+++*===#+++++++====    2222::::::::=======::::::::===",
"======*+++*===#+++++++====    2222::::::::=======::::::::===",
"======*+++*===#+++++++====    2222::::::::=======::::::::===",
"#######+++####@+++++++####    &&&&$$$$$$$$#######$$$$$$$$###",
"++++++++++++++++++++++++++    ++++++++++++++++++++++++++++++",
"++++++++++++++++++++++++++    ++++++++++++++++++++++++++++++",
"++++++++++++++++++++++++++    ++++++++++++++++++++++++++++++",
"XXXXXXXXXXXXXXXXXXXXXX               .XXXXXXXXXXXXXXXXXXXXXX",
"XXXXXXXXXXXXXXXXXXXXXX               .XXXXXXXXXXXXXXXXXXXXXX",
"XXXXXXXXXXXXXXXXXXXXXX               .XXXXXXXXXXXXXXXXXXXXXX"
};
