/* XPM */
static char *_3b77355259c4a19c0e98a3acd3bcaadUKJ1uLKf1wyqeGeW[] = {
/* columns rows colors chars-per-pixel */
"60 60 112 2 ",
"   c None",
".  c #0B0A06",
"X  c #0E0C0B",
"o  c #120E0C",
"O  c #15110D",
"+  c #18120C",
"@  c #171411",
"#  c #191513",
"$  c #1E1A16",
"%  c #1F1B18",
"&  c #2C0101",
"*  c #370305",
"=  c #3E0001",
"-  c #231B15",
";  c #231E1A",
":  c #281F1B",
">  c #361212",
",  c #26201D",
"<  c #28221D",
"1  c #2D2623",
"2  c #2F2924",
"3  c #312722",
"4  c #312B25",
"5  c #342D29",
"6  c #382F29",
"7  c #36312B",
"8  c #3C322C",
"9  c #3D3431",
"0  c #410000",
"q  c #490100",
"w  c #5B0707",
"e  c #5C090A",
"r  c #650202",
"t  c #690102",
"y  c #5B2E2D",
"u  c #40362E",
"i  c #413731",
"p  c #443A32",
"a  c #443B33",
"s  c #453B33",
"d  c #453C33",
"f  c #463C33",
"g  c #473D33",
"h  c #453E33",
"j  c #473E32",
"k  c #413835",
"l  c #433A34",
"z  c #453B34",
"x  c #443B35",
"c  c #433E35",
"v  c #463C34",
"b  c #473D35",
"n  c #443E34",
"m  c #443F34",
"M  c #453E35",
"N  c #473E35",
"B  c #463D36",
"V  c #473D37",
"C  c #473E36",
"Z  c #463F36",
"A  c #473E37",
"S  c #443C33",
"D  c #483E35",
"F  c #483E36",
"G  c #483F36",
"H  c #4B3F37",
"J  c #483F38",
"K  c #40403C",
"L  c #494039",
"P  c #4B4038",
"I  c #49403A",
"U  c #4A413A",
"Y  c #4C423A",
"T  c #4D433B",
"R  c #4E433D",
"E  c #4E433E",
"W  c #4C453C",
"Q  c #4E443C",
"!  c #4F453D",
"~  c #4D463D",
"^  c #4D443E",
"/  c #4F463E",
"(  c #4F463F",
")  c #48423D",
"_  c #514339",
"`  c #504638",
"'  c #494241",
"]  c #4C4848",
"[  c #594F44",
"{  c #594F47",
"}  c #5C5146",
"|  c #5D5347",
" . c #5D5349",
".. c #5F5348",
"X. c #5E5448",
"o. c #5E5449",
"O. c #5F5549",
"+. c #555456",
"@. c #61574B",
"#. c #685F57",
"$. c #666155",
"%. c #676059",
"&. c #68625F",
"*. c #6B645D",
"=. c #626162",
"-. c #BB1A1B",
";. c #B91C18",
":. c #D90C0D",
">. c #D7110E",
",. c #D60E13",
"<. c #D51211",
"1. c #D81010",
/* pixels */
"                                                                                                                        ",
"                                                                                                                        ",
"                                                                                                                        ",
"                                                                                                                        ",
"                                                                                                                        ",
"                                                                                                                        ",
"                                1 4 4 M                                                                                 ",
"                            ' D M 5 3 p 8 8                                                                             ",
"                        - M 8 W D x 8 M 8 p D g                                                                         ",
"                      M M M D D 8 8 8 8 8 W W M D J                                                                     ",
"                  M 8 8 8 M M 3 p D 3 W W W W W M D D &.                                                                ",
"                8 M M M M M g W T W W W W W W W D W W 8 8                                                               ",
"            8 8 M 8 8 8 8 8 M M W W W W W  .O.O.M M W W p 8 4                                                           ",
"            < < x 8 8 M M 8 8 u 8 8 W W W W W [ W M 4 2 i 8 4 8 8                                                       ",
"            ; < $ $ 8 8 M M 3 8 8 D M W M M W W M M D 8 8 8 8 8 1                                                       ",
"            ; $ $ % ; < M M 4 W W U W W O.O.W W M 8 u 8 8 8 1 1 1                                                       ",
"            < $ $ $ ; < , 9 8 8 W W _ W W  . .p M D 8 8 1 1 1 5 1                                                       ",
"            < < 4 $ # < < < , 8 8 8 D 8 W D M R 8 4 1 4 1 < , , <                                                       ",
"            $ ; 2 2 < < < < , ; < 4 4 6 8 8 8 8 8 1 1 5 4 , 4 4 4 4                                                     ",
"            $ ; < < < < < < 1 2 < < ; 8 8 3 4 ; 1 1 , ; 8 8 8 8 8 4 4 K     , , ,                                       ",
"            $ $ , < < < < < , 2 2 < ; ; $ 8 1 ; , , 4 4 4 8 2 4 6 8 8 , 4 4 3 4 ; 4 4                                   ",
"            o $ $ $ < < < < ; # 2 < < ; $ 8 1 O , , < 4 4 8 8 8 8 8 8 8 g 8 8 M 8 4 W R k                               ",
"            o o # $ ; < < # $ # $ $ < < , 8 1 o o O 2 4 6 8 8 4 4 3 8 8 p W W M 8 4 8 8 D D                             ",
"            o $ # # % < < 1 # $ $ $ $ # < 8 1 O # O o % 4 4 2 , , 8 8 8 4 4 8 8 4 8 8 8 8 [ W W                         ",
"            o $ $ # $ $ , < , ; $ $ # $ # 1 1 2 # # @ $ # o , , ; 4 M 8 M p i W 4 T U i W O.W W ,                       ",
"            o o ; $ $ % $ # , ; # $ # # # 8 4 2 4 # # $ # O o $ 4 3 U W W W W T W W M M |  .| t ;                       ",
"              O o O $ # ; # # $ # $ $ : ; 8 8 4 4 4 4 4 $ # # $ ; ; g M M M M D W p W W W 8 g t c                       ",
"                - O $ $ ; ; ; $ - 8 4 ; : : 8 4 4 4 4 5 $ # # ; ; ; < 8 W W @.@.`  .O.8 8 8 * 8 D < -                   ",
"                    - $ $ ; % : 8 8 6 < : : , 8 8 4 4 4 1 $ $ , < $ < < < W W ; W * M 8 p _ = p r ; $ < < <             ",
"                        4 4 4 : 8 8 8 4 4 , , ; , , 4 4 7 $ $ # $ $ # # , ; $ , : = y M M D 8 M r $ $ < 2 4 $ <         ",
"                    ] 8 8 3 8 : : 8 8 8 8 8 O : , , , , - $ $ $ $ $ $ # $ # $ ; : 8 t M M M 7 8 = 6 1 4 ; 2 $ 4 4 4     ",
"                , 4 8 8 8 8 8 < : : 8 8 , ; 4 4 8 6 < < ; % $ $ $ # $ $ # # < M U 8 8 M M t 1.8 1 1 1 $ < $ $ 2 4 4     ",
"            4 : : 2 4 4 8 k ; 4 5 : : $ $ $ 4 3 8 5 3 8 8 , $ # $ # o $ # o > g ;.M 8 <.t t t M 1 5 1 ; % 1 # < < <     ",
"        8 8 4 ; , 8 6 4 # 8 8 4 8 : O $ ; $ 8 8 8 4 3 8 1 2 # # $ # o o , o q :.-.p t >.r 0 t M 8 5 ; ; 1 1 5 < < 7     ",
"    4 , 8 8 8 < , 7 # # 9 8 8 8 8 $ O O , - : - < 6 8 8 8 7 # o # # < < , , & ,.w 8 t t = 0 M 8 8 # ; ; 4 1 5 4         ",
"8 4 4 , 4 4 8 : X X O 4 8 4 8 ; $ ; O     ; : : - 6 8 : : 4 o o # # 2 < 2 2 & t e g = t M M M *.6     6 5 1 1 - ; 5     ",
"8 6 8 , ; O @ # # # 4 4 8 4 ; ; ; ;       2 5 8 % $ : : : ; o o # # 2 2 8 2 < < < M g 8 M 8 o *.#       + 1 1 - ; 5 5   ",
"8 8 8 X o O # # 2 : , 8 9 ; ; ; ;         4 8 8 < $ < 8 8 2 , o # # , 1 ) . < 1 8 8 M 4 8 8 o #.$           $ - 1 1 5   ",
"8 O O @ o X   3 4 3 , ; ; ; ; ;         8 8 8 6 4   4 4 8 4 6 o o o , < . . < 8 8 8 o 4 8 8 o %.              o 1 1 1   ",
"  8 # @     8 8 8 8 O O $ $             8 8 4 4 4   8 8 8 8 8     o $ $ . . $ 8 2 *.o 8 4 7                       1 1   ",
"          , 4 4 3 ; ; O O               8 4 4 4 4   8 8 3 5 8         % . o $ 5 2 $.o 8                                 ",
"      4 4 , , 2 $ ; ; @                 4 8 8 4 5   8 8 4 3 8           . o o   + $.                                    ",
"    8 6 8 9 # O ; ;                   4 4 8 5 <       8 8 8 8                                                           ",
"    8 8 8 $ O O ;                     : , , % <       4 8 ; 7                                                           ",
"      8 ; $ ; O                       4 i 8 % <       : < , ; 2                                                         ",
"      , ; ; ;                       4 4 8 5 -         : ; 8 7 ;                                                         ",
"                                    8 8 4 < 4         4 3 8 8 8                                                         ",
"                                    8 4 4 < 4         4 8 4 4 6                                                         ",
"                                  +., , , < =.          8 4 , 7                                                         ",
"                                  2 4 8 $ -             ; , , ;                                                         ",
"                                  4 8 8 < -             , < 8 1                                                         ",
"                                  8 8 8 < 4             4 4 8 1 8                                                       ",
"                                  8 8 5 4               4 8 8 8 8                                                       ",
"                                  o X X 4               8 8 8 X 8                                                       ",
"                                    X o o               9 o X X o                                                       ",
"                                                          X X X                                                         ",
"                                                                                                                        ",
"                                                                                                                        ",
"                                                                                                                        ",
"                                                                                                                        "
};
