/* XPM */
static char *left_21707599919[] = {
/* columns rows colors chars-per-pixel */
"60 60 15 1 ",
"  c None",
". c #642D0E",
"X c #4D2B21",
"o c #6D3E24",
"O c #737176",
"+ c #B6653A",
"@ c #C07D50",
"# c #DF9B6C",
"$ c #382F82",
"% c #5A52C1",
"& c #6256C2",
"* c #278785",
"= c #00AEAD",
"- c #999A9C",
"; c #FFFEFF",
/* pixels */
"                                                            ",
"                                                            ",
"                                                            ",
"                                                            ",
"                                                            ",
"                                                            ",
"                                                            ",
"                                                            ",
"                                                            ",
"                                                            ",
"                                                            ",
"                                                            ",
"               ooooooooooooooooooooooooXXXXXX               ",
"               ooooooooooooooooooooooooXXXXXX               ",
"               ooooooooooooooooooooooooXXXXXX               ",
"               ooooooooooooooooooooooooXXXXXX               ",
"               ooooooooooooooooooooooooXXXXXX               ",
"               ooooooooooooooooooooooooXXXXXX               ",
"               ooo##################oooXXXXXX               ",
"               ooo##################oooXXXXXX               ",
"               ooo##################oooXXXXXX               ",
"               ########################@@@XXX               ",
"               ########################@@@XXX               ",
"               ########################@@@XXX               ",
"               ###;;;%%%######%%%;;;###@@@XXX               ",
"               ###;;;%%%######%%%;;;###@@@XXX               ",
"               ###;;;%%%######%%%;;;###@@@XXX               ",
"               #########++++++#########@@@XXX               ",
"               #########++++++#########@@@XXX               ",
"               #########++++++#########@@@XXX               ",
"               ######...######...######@@@@@@               ",
"               ######...######...######@@@@@@               ",
"               ######...######...######@@@@@@               ",
"               ######............######@@@@@@               ",
"               ######............######@@@@@@               ",
"               ######............######@@@@@@               ",
"            =================================***            ",
"            =================================***            ",
"            =================================***            ",
"            =================================***            ",
"            =================================***            ",
"            =================================***            ",
"            ######=====================######@@@            ",
"            ######=====================######@@@            ",
"            ######=====================######@@@            ",
"         ######@@@==================######@@@@@@            ",
"         ######@@@==================######@@@@@@            ",
"         ######@@@==================######@@@@@@            ",
"                  ===&&&&&&&&&&&&&&&&&&$$$                  ",
"                  ===&&&&&&&&&&&&&&&&&&$$$                  ",
"                  ===&&&&&&&&&&&&&&&&&&$$$                  ",
"                  &&&&&&$$$      &&&&&&$$$                  ",
"                  &&&&&&$$$      &&&&&&$$$                  ",
"                  &&&&&&$$$      &&&&&&$$$                  ",
"                     OOOOOOOOO   &&&&&&$$$                  ",
"                     OOOOOOOOO   &&&&&&$$$      XXX XXX     ",
"                     OOOOOOOOO   &&&&&&$$$       XXX  XXX   ",
"                                 ------OOO        XXX XXX   ",
"                                 ------OOO       XX   XXX   ",
"                                 ------OOO                  "
};
