/* XPM */
static char *left_41707599919[] = {
/* columns rows colors chars-per-pixel */
"60 60 13 1 ",
"  c None",
". c #642D0E",
"X c #4D2B21",
"o c #6D3E24",
"O c #B6653A",
"+ c #C07D50",
"@ c #DF9B6C",
"# c #382F82",
"$ c #5A52C1",
"% c #6256C2",
"& c #278785",
"* c #00AEAD",
"= c #FFFEFF",
/* pixels */
"                                                            ",
"                                                            ",
"                                                            ",
"                                                            ",
"                                                            ",
"                                                            ",
"                                                            ",
"                                                            ",
"                                                            ",
"                                                            ",
"                                                            ",
"                                                            ",
"                                                            ",
"                                                            ",
"                                                            ",
"                  ooooooooooooooooooooooooXXXXXX            ",
"                  ooooooooooooooooooooooooXXXXXX            ",
"                  ooooooooooooooooooooooooXXXXXX            ",
"                  ooooooooooooooooooooooooXXXXXX            ",
"                  ooooooooooooooooooooooooXXXXXX            ",
"                  ooooooooooooooooooooooooXXXXXX            ",
"                  ooo@@@@@@@@@@@@@@@@@@oooXXXXXX            ",
"                  ooo@@@@@@@@@@@@@@@@@@oooXXXXXX            ",
"                  ooo@@@@@@@@@@@@@@@@@@oooXXXXXX            ",
"                  @@@@@@@@@@@@@@@@@@@@@@@@+++XXX            ",
"                  @@@@@@@@@@@@@@@@@@@@@@@@+++XXX            ",
"                  @@@@@@@@@@@@@@@@@@@@@@@@+++XXX            ",
"                  @@@===$$$@@@@@@$$$===@@@+++XXX            ",
"                  @@@===$$$@@@@@@$$$===@@@+++XXX            ",
"                  @@@===$$$@@@@@@$$$===@@@+++XXX            ",
"                  @@@@@@@@@OOOOOO@@@@@@@@@+++XXX            ",
"                  @@@@@@@@@OOOOOO@@@@@@@@@+++XXX            ",
"                  @@@@@@@@@OOOOOO@@@@@@@@@+++XXX            ",
"                  @@@@@@...@@@@@@...@@@@@@++++++            ",
"                  @@@@@@...@@@@@@...@@@@@@++++++            ",
"                  @@@@@@...@@@@@@...@@@@@@++++++            ",
"                  @@@@@@............@@@@@@++++++            ",
"                  @@@@@@............@@@@@@++++++            ",
"                  @@@@@@............@@@@@@++++++            ",
"               *********************************&&&         ",
"               *********************************&&&         ",
"               *********************************&&&         ",
"               *********************************&&&         ",
"               *********************************&&&         ",
"               *********************************&&&         ",
"               @@@@@@*********************@@@@@@+++         ",
"               @@@@@@*********************@@@@@@+++         ",
"               @@@@@@*********************@@@@@@+++         ",
"               @@@@@@*********************@@@@@@+++         ",
"               @@@@@@*********************@@@@@@+++         ",
"               @@@@@@*********************@@@@@@+++         ",
"                     ***%%%%%%%%%%%%%%%%%%###               ",
"                     ***%%%%%%%%%%%%%%%%%%###               ",
"                     ***%%%%%%%%%%%%%%%%%%###               ",
"                     %%%%%%###      %%%%%%###               ",
"                     %%%%%%###      %%%%%%###               ",
"                     %%%%%%###      %%%%%%###               ",
"                     %%%%%%###      %%%%%%###               ",
"                     %%%%%%###      %%%%%%###               ",
"                     %%%%%%###      %%%%%%###               "
};
