/* XPM */
static char *result[] = {
/* columns rows colors chars-per-pixel */
"60 60 190 2 ",
"   c #010104",
".  c #05030B",
"X  c #09040E",
"o  c #0D0C0E",
"O  c #060311",
"+  c #0A0513",
"@  c #0D0A15",
"#  c #0B0519",
"$  c #0F0B1B",
"%  c #110C16",
"&  c #120C1C",
"*  c #101012",
"=  c #14121C",
"-  c #090320",
";  c #140D22",
":  c #190E25",
">  c #160E28",
",  c #1A0E2B",
"<  c #161123",
"1  c #191326",
"2  c #1D1926",
"3  c #1B142B",
"4  c #1E192C",
"5  c #0F0332",
"6  c #0E003A",
"7  c #120434",
"8  c #13033D",
"9  c #1E1631",
"0  c #1E1931",
"q  c #211329",
"w  c #221B2E",
"e  c #211632",
"r  c #221A34",
"t  c #291B37",
"y  c #261E3B",
"u  c #291E3D",
"i  c #262036",
"p  c #26203A",
"a  c #2A213D",
"s  c #160143",
"d  c #1A0342",
"f  c #160149",
"g  c #1A014C",
"h  c #1C0154",
"j  c #1F015A",
"k  c #23054D",
"l  c #20084F",
"z  c #271F41",
"x  c #2A1E42",
"c  c #230355",
"v  c #290754",
"b  c #290C53",
"n  c #23015C",
"m  c #2B025D",
"M  c #270C5F",
"N  c #2D0B5C",
"B  c #250C57",
"V  c #261250",
"C  c #2B145E",
"Z  c #31105B",
"A  c #3B1759",
"S  c #272040",
"D  c #2C2143",
"F  c #312345",
"G  c #342B46",
"H  c #33254B",
"J  c #38274D",
"K  c #35294C",
"L  c #3A2A4E",
"P  c #3B3A42",
"I  c #362651",
"U  c #3D2756",
"Y  c #362A53",
"T  c #3B2954",
"R  c #3D2758",
"E  c #3C2A59",
"W  c #250261",
"Q  c #2B0363",
"!  c #2D0E63",
"~  c #270169",
"^  c #2D0268",
"/  c #2F0E6C",
"(  c #310565",
")  c #330A65",
"_  c #34056C",
"`  c #39076D",
"'  c #320D6C",
"]  c #2D1363",
"[  c #2E1669",
"{  c #321465",
"}  c #3A1363",
"|  c #331C65",
" . c #33146C",
".. c #341A6C",
"X. c #391B6E",
"o. c #350573",
"O. c #3A0574",
"+. c #340E74",
"@. c #3B0B75",
"#. c #3E057B",
"$. c #350E7A",
"%. c #3A0D7D",
"&. c #351373",
"*. c #3A1475",
"=. c #361972",
"-. c #3A1B74",
";. c #361379",
":. c #3B147B",
">. c #3C1A7B",
",. c #412756",
"<. c #403357",
"1. c #47365E",
"2. c #48345E",
"3. c #410D74",
"4. c #400D7E",
"5. c #43067D",
"6. c #471375",
"7. c #41167C",
"8. c #49177F",
"9. c #421B7C",
"0. c #502A72",
"q. c #56297A",
"w. c #3C0E81",
"e. c #3D1382",
"r. c #3E1981",
"t. c #410780",
"y. c #420E84",
"u. c #490983",
"i. c #440E89",
"p. c #431385",
"a. c #4B1685",
"s. c #431A83",
"d. c #4C1B85",
"f. c #44138A",
"g. c #4B158B",
"h. c #451989",
"j. c #4B1A8C",
"k. c #501387",
"l. c #52168D",
"z. c #521C8C",
"x. c #4C1592",
"c. c #4D1A93",
"v. c #521694",
"b. c #531B94",
"n. c #5B1D97",
"m. c #55179A",
"M. c #551B9A",
"N. c #5A1D9B",
"B. c #621F9E",
"V. c #412180",
"C. c #4F2284",
"Z. c #542083",
"A. c #5A238C",
"S. c #55238D",
"D. c #4F2191",
"F. c #542193",
"G. c #5B2294",
"H. c #532098",
"J. c #5D229B",
"K. c #62249B",
"L. c #642A9C",
"P. c #6D3494",
"I. c #70309A",
"U. c #5915A0",
"Y. c #571CA0",
"T. c #5C1DA2",
"R. c #621EA4",
"E. c #5E22A2",
"W. c #6324A4",
"Q. c #6926A3",
"!. c #6429A1",
"~. c #6C2BA4",
"^. c #6623A9",
"/. c #6A25AA",
"(. c #6D2BAC",
"). c #742EAD",
"_. c #783BA4",
"`. c #7434AE",
"'. c #7639AF",
"]. c #7C32AD",
"[. c #712BB1",
"{. c #7432B0",
"}. c #7931B3",
"|. c #7D34BB",
" X c #7C3CBF",
".X c #7A3DB3",
"XX c #8340B3",
"oX c #8542C0",
"OX c #9049C4",
"+X c None",
/* pixels */
"+X+X+X+X+X+X+X+X+X+X+X+X+X+X+X+X+X+X+X+X+X+X+X+X+X+X+X+X+X+X+X+X+X+X+X+X+X+X+X+X+X+X+X+X+X+X+X+X+X+X+X+X+X+X+X+X+X+X+X+X",
"+X+X+X+X+X+X+X+X+X+X+X+X+X+X+X+X.   .   . @ + x r . ; F x $     .   + + ; H r . : F r   < +X+X+X+X+X+X+X+X+X+X+X+X+X+X+X",
"+X+X+X+X+X+X+X+X+X+X+X+X+X+X+X+X  L E a   O x 1 ;   % S       E R z   1 p ; ;   ; & . . = +X+X+X+X+X+X+X+X+X+X+X+X+X+X+X",
"+X+X+X+X+X+X+X+X+X+X+X+X+X+X+X+X< x & & y O % %     . & .   U S & & y @ . &     . + . p # +X+X+X+X+X+X+X+X+X+X+X+X+X+X+X",
"+X+X+X+X+X+X+X+X+X+X+X+X+X+X+X+X$ & . O + .   . D r . .   + 1 = . . + .     a w . .   < @ +X+X+X+X+X+X+X+X+X+X+X+X+X+X+X",
"+X+X+X+X+X+X+X+X+X+X+X+X+X+X+X+X& O & p U Y y   a   .     @ & . ; x T H +   x   .     +   +X+X+X+X+X+X+X+X+X+X+X+X+X+X+X",
"+X+X+X+X+X+X+X+X+X+X+X+X+X+X+X+X. & Y ; =   ;       . L r .   > Y % & $ O       + D . & r +X+X+X+X+X+X+X+X+X+X+X+X+X+X+X",
"+X+X+X+X+X+X+X+X+X+X+X+X+X+X+X+X0 . . % . u y @   $ + % O r & .   & O S > .   % + @ O r   +X+X+X+X+X+X+X+X+X+X+X+X+X+X+X",
"+X+X+X+X+X+X+X+X+X+X+X+X+X+X+X+X& .   . . . % .     % . @ 3 X .   . . @ O .     &   y . . +X+X+X+X+X+X+X+X+X+X+X+X+X+X+X",
"+X+X+X+X+X+X+X+X+X+X+X+X+X+X+X+X& u + X + @ ; H D 3 % y & . r y + X + % 3 Y F 3 : 3 + X X +X+X+X+X+X+X+X+X+X+X+X+X+X+X+X",
"+X+X+X+X+X+X+X+X+X+X+X+X+X+X+X+Xu > . . .   & & . . .   r r x & . . . + % ; . X . 3 . r y +X+X+X+X+X+X+X+X+X+X+X+X+X+X+X",
"+X+X+X+X+X+X+X+X+X+X+X+X+X+X+X+X& O . = . a . @ &   .     . u . . = + 1 . % &   .   . % X +X+X+X+X+X+X+X+X+X+X+X+X+X+X+X",
"+X+X+X@ * * = w = % <.2 = G 1.K . + . .   & < O O . .   . . + O O . . ; # . .         .   o o * w * o 1.G = G 2.K +X+X+X",
"+X+X+X  %   & .   T @ . u U % .   7 ( ( ( Q h ( n g @.^ s g W ^ @.o.^ j m m f _ 3.d 8 .   . % . X   U ; . < U = . +X+X+X",
"+X+X+X+ L u . . p i % . % p   . e A ( d.8.X.{ d.s. .s.{ ! &.p.n.L.z.9.C 9.s. .7.*.B N   . Y L 4 . i i ; % . r   . +X+X+X",
"+X+X+Xx & &           . . .   . & d _ 3.| ] z.a.v.@.G.z. .) :.:.j.X.Z w.G.l.' %.I. .b . x ; & @           . .   . +X+X+X",
"+X+X+X% X   & X . . : D . .     X 5 n s ) d.a.....-. .G.b.>. .-.| &.g.E.-...-.{ @.d.X.% % % . . . . . . T 3 .     +X+X+X",
"+X+X+X@ 1 r F D w . X . . 3 & . . } o.W K.d.| ;.>.s.s.' p.~.g.J.p./.M.-.&.>.7.s.! { G.& $ X 9 y F r .   3 . : =   +X+X+X",
"+X+X+XO F ; & & u i .   a & & % 9 v n j 9.>.+.' m.c.M.*.[ p.h.p.*.h.p.&.&.v.d.b.a.] X..   T u & = u S .   ; & ; = +X+X+X",
"+X+X+X&   $ X S S % . @ . & . +   c c ~ J.H. .+.p.J.n.h.e.h.p.p.r.^.W.&.+.p.N.N.j.&.:.u %     @ y y % .   @ & . X +X+X+X",
"+X+X+X@   @   . ; + K a & @ @ 3   d h d >.Q.f.e.v.v.}.4.[ s.>.:...s.(./.e.v.g.].B.{ ... @ . . + . % . L G 3 % % 1 +X+X+X",
"+X+X+XU y   & & & S F O % T & X 0 k d.a. .>.!.v.v.(.w.;.E.}.p.M.E.;.s.z.^.m./.p. .C.K.# ,.T $ . % = z T & @ I & . +X+X+X",
"+X+X+Xu O . .   ; & % X .   y . O d n n.n.! >.e.f.&.=.E.[.w.;.r.(./.$.| s.p.*. .7.n._ p a & . . . % & $ . .   i . +X+X+X",
"+X+X+X. @ . . & y %   . . . . .   8 n O..Xn.+.j.p.:.H.M.:.&.;.r.v.oXT.%.r.p.X.s.n.*.] $ O   & . % S %   . . . . . +X+X+X",
"+X+X+X      . & . . I # . z T y   d w.y.j.h.$.c.e.:.T.p. .+.e.x.E.H.m.;.h.f.&.g.N.{ ! X         & X   U p . y R u +X+X+X",
"+X+X+X  3 & @ . $ I & . r H o . + 0.l.#.Q.F. .h.:.=.s.;.w.w.i. XM.[.E. .>.:. .r.@./ +..   , e $ . $ H & o & L + . +X+X+X",
"+X+X+XY 9 & y . % . @   . $ .   : k O.u.=. .K.v.m.e.W.H.=.+.x.x.J.r.&.f.^.M.w.i.'.*.!   Y u & , # % . $     $ .   +X+X+X",
"+X+X+Xa & %           . . .   . + 7 W g ) l.v.X.:.>.:.E.M.>.[ r.-. .v.(.V.>.>.[ p.H.-.  i & & @     .   . . .   . +X+X+X",
"+X+X+X& + 4 H H y . & :       . . B ^ W v.!.-.=.-.h.V.;.E./.r.j.w.T.[.h...-.s.9.{ j.n.& & X & y F r . . F +     . +X+X+X",
"+X+X+X  x , &   &         Y z   ; v n j d.r.;.&.M.v.Y.;.&.e.c.f.>.b.r.;.:.M.c.M.g.] =..   % U $ . &         H u   +X+X+X",
"+X+X+X+ a ; & : x t . . i & @ & 0 B W W j.h.+.&.c.[.(.r.;.c.c.c.e.M.c.:.+.x.).{.e.{ s.+ . L r & < u y .   & = & % +X+X+X",
"+X+X+X. . . . O & . .   % +   p   s j g s.Q.f.w.m.m.|.w.=.r.r.r...h.(./.w.M.x.[.W. .=.; X .   . + & . .   X +   u +X+X+X",
"+X+X+X% . %   X = O U D & & & & . h 5.W  .S.{.i.x.|.M.&.e.[.x.x.w.&.j. XQ.x.[.R.&.X.J.  ; . . @ . % X U U r & & & +X+X+X",
"+X+X+XH 1 . + + & 9 e X + y e O $ d W n.n.' >.p.x.:.&.n.[.e.e.e.(.^.+. .h.h.:. .7.J.@.3 G u + . + & 3 u @ X r 9 . +X+X+X",
"+X+X+Xp . = . S . O &   .   . . . d c o.XXn.&.s.e.=.G.N.e. .>.e.D.OXT.$.>.e. .>.R.*.C   z . O @ y . . & & .     . +X+X+X",
"+X+X+X. +   . % u & . . X O . .   8 o.5.j.j.$.N.x.e.T.e. .+.e.f.Y.M.m.e.j.g.*.m.m.{ ) $ .   $   $ p ;   . . . O . +X+X+X",
"+X+X+X  @ . $ X   K ; . r L > @ . q.g.5.Q.b...s.;...r.e.%.e.p.|.M.[.E. .>.>.[ r.&._ ' .     % . + . J : # % L , + +X+X+X",
"+X+X+X. E z   . p x & . ; S   . z A #.L.d. .p.N.T.p.m.s.=.e.M.E. XM.&.*.c.Y.p.f.b...' .   U Y w X p u & % . y   . +X+X+X",
"+X+X+XY 1 % y . & . X     %     $ 6 ^ h C x.b.=.:.;.:.E.M.-.=.>.-.[ x./.h.>.-.+.y.z...  Y y & 3 + % X %   . @ .   +X+X+X",
"+X+X+X; O   ; .   . : D O .     . 8 h h p.`.>.[ =.>.X.:./.T. .;.+.x. Xx. ...>...{ z.g.; & &   . . .   . Y 4 .     +X+X+X",
"+X+X+X& $ y E T x . @ X .     . + v n j j.>./  .x.j.b.&.*.g.g.h.>.M.h.&.&.c.j.b.9.{ >.; & . ; F U x .   i       . +X+X+X",
"+X+X+X. D > % X 3 < .   < a r . r Z m n s.:.+.' M.(.~.+.[ m.x.c.;.h.e.@.' M.Q.`.:.) >..   t H & X 2 <     o u r + +X+X+X",
"+X+X+X%   & . x S & . + . & . +   d g h d.G.:.*.f.v./.p. .s.:.>.&.D.W.z.$.p.l.!.l.{ =.y ;     @ u S & .   @ & O . +X+X+X",
"+X+X+X. . . . . & . .   % .   p . d 3.n { d.~.%.a.~.l.[ >.Q.e.g.+...s.).G.a.~.b. .| A.& . .   . . % . .   . .   S +X+X+X",
"+X+X+XI r   & % & y F ; & Y = O 9 d 6.k.) ) S.l.a.A.=.9.J.L.:.z.K.+.! &.K.a.n.{ | d.d.. H L $ . $ % y U , $ L & + +X+X+X",
"+X+X+Xy + . .   % $ $ . .   y O . 7 g m P.9.M X.&.] 9.a.' C {  .9._.k.! X. .C { 8.) V x y $ . . . % % & . .   r . +X+X+X",
"+X+X+Xi . $ . p + O & . .     .   # f n ) Q c 3._ n @.h s g f f ( _ _ m Q _ n ` ) 7 8   i . . @ y O + $ @ .     . +X+X+X",
"+X+X+X+X+X+X+X+X+X+X+X+X+X+X+X+X        . = . u x X . x J =         O @   T D   # J x . . +X+X+X+X+X+X+X+X+X+X+X+X+X+X+X",
"+X+X+X+X+X+X+X+X+X+X+X+X+X+X+X+X. . $ . $ . $ e X . i T @ .   . $   &   L & . O x u . & . +X+X+X+X+X+X+X+X+X+X+X+X+X+X+X",
"+X+X+X+X+X+X+X+X+X+X+X+X+X+X+X+X@ F F y & . r ; @   $ r .   1 H D r & ; r & @   & % . w . +X+X+X+X+X+X+X+X+X+X+X+X+X+X+X",
"+X+X+X+X+X+X+X+X+X+X+X+X+X+X+X+X$ > & &           . . .   . i ; ; %           . .   . < & +X+X+X+X+X+X+X+X+X+X+X+X+X+X+X",
"+X+X+X+X+X+X+X+X+X+X+X+X+X+X+X+X= %     & . . . T p . .   @ $ &   . & .   . T y .     + . +X+X+X+X+X+X+X+X+X+X+X+X+X+X+X",
"+X+X+X+X+X+X+X+X+X+X+X+X+X+X+X+X. $ K : 3 & ;   .     K 4 . . % L < , ; .   O   O a   & + +X+X+X+X+X+X+X+X+X+X+X+X+X+X+X",
"+X+X+X+X+X+X+X+X+X+X+X+X+X+X+X+X  H x & % & x &     y & & .   T z & % 4 y .     u % & < . +X+X+X+X+X+X+X+X+X+X+X+X+X+X+X",
"+X+X+X+X+X+X+X+X+X+X+X+X+X+X+X+Xr     % . p r +   % O % . r &     & + y = .   % + + O . 3 +X+X+X+X+X+X+X+X+X+X+X+X+X+X+X",
"+X+X+X+X+X+X+X+X+X+X+X+X+X+X+X+XO . . %   . $ a L u & & = . % . . %   @ O L Y p & % ; O + +X+X+X+X+X+X+X+X+X+X+X+X+X+X+X",
"+X+X+X+X+X+X+X+X+X+X+X+X+X+X+X+Xq R ; . & & 1 I > . & U % . T U &   & & a T & . , r . 3 + +X+X+X+X+X+X+X+X+X+X+X+X+X+X+X",
"+X+X+X+X+X+X+X+X+X+X+X+X+X+X+X+X9 $ . O . < @ $ + . .   < = u $ . + O & # & + .   < O % = +X+X+X+X+X+X+X+X+X+X+X+X+X+X+X",
"+X+X+X+X+X+X+X+X+X+X+X+X+X+X+X+X$   %   . ; y . . . . . . @ O   &   . 9 ;   . . . . . P = +X+X+X+X+X+X+X+X+X+X+X+X+X+X+X",
"+X+X+X+X+X+X+X+X+X+X+X+X+X+X+X+X+X+X+X+X+X+X+X+X+X+X+X+X+X+X+X+X+X+X+X+X+X+X+X+X+X+X+X+X+X+X+X+X+X+X+X+X+X+X+X+X+X+X+X+X"
};
