/* XPM */
static char *right_21707591784[] = {
/* columns rows colors chars-per-pixel */
"60 60 15 1 ",
"  c None",
". c #642D0E",
"X c #4D2B21",
"o c #6D3E24",
"O c #737176",
"+ c #B6653A",
"@ c #C07D50",
"# c #DF9B6C",
"$ c #382F82",
"% c #5A52C1",
"& c #6256C2",
"* c #278785",
"= c #00AEAD",
"- c #999A9C",
"; c #FFFEFF",
/* pixels */
"                                                            ",
"                                                            ",
"                                                            ",
"                                                            ",
"                                                            ",
"                                                            ",
"                                                            ",
"                                                            ",
"                                                            ",
"                                                            ",
"                                                            ",
"                                                            ",
"               XXXXXXoooooooooooooooooooooooo               ",
"               XXXXXXoooooooooooooooooooooooo               ",
"               XXXXXXoooooooooooooooooooooooo               ",
"               XXXXXXoooooooooooooooooooooooo               ",
"               XXXXXXoooooooooooooooooooooooo               ",
"               XXXXXXoooooooooooooooooooooooo               ",
"               XXXXXXooo##################ooo               ",
"               XXXXXXooo##################ooo               ",
"               XXXXXXooo##################ooo               ",
"               XXX@@@########################               ",
"               XXX@@@########################               ",
"               XXX@@@########################               ",
"               XXX@@@###;;;%%%######%%%;;;###               ",
"               XXX@@@###;;;%%%######%%%;;;###               ",
"               XXX@@@###;;;%%%######%%%;;;###               ",
"               XXX@@@#########++++++#########               ",
"               XXX@@@#########++++++#########               ",
"               XXX@@@#########++++++#########               ",
"               @@@@@@######...######...######               ",
"               @@@@@@######...######...######               ",
"               @@@@@@######...######...######               ",
"               @@@@@@######............######               ",
"               @@@@@@######............######               ",
"               @@@@@@######............######               ",
"            ***=================================            ",
"            ***=================================            ",
"            ***=================================            ",
"            ***=================================            ",
"            ***=================================            ",
"            ***=================================            ",
"            @@@######=====================######            ",
"            @@@######=====================######            ",
"            @@@######=====================######            ",
"            @@@@@@######==================@@@######         ",
"            @@@@@@######==================@@@######         ",
"            @@@@@@######==================@@@######         ",
"                  $$$&&&&&&&&&&&&&&&&&&===                  ",
"                  $$$&&&&&&&&&&&&&&&&&&===                  ",
"                  $$$&&&&&&&&&&&&&&&&&&===                  ",
"                  $$$&&&&&&      $$$&&&&&&                  ",
"                  $$$&&&&&&      $$$&&&&&&                  ",
"                  $$$&&&&&&      $$$&&&&&&                  ",
"                  $$$&&&&&&   OOOOOOOOO                     ",
"        X         $$$&&&&&&   OOOOOOOOO                     ",
"      X XXX       $$$&&&&&&   OOOOOOOOO                     ",
"   X  X X  X      OOO------                                 ",
"     XX XXXX      OOO------                                 ",
"     XX  XX       OOO------                                 "
};
