/* XPM */
static char *up_11707601903[] = {
/* columns rows colors chars-per-pixel */
"60 60 11 1 ",
"  c None",
". c #4D2B21",
"X c #6D3E24",
"o c #737176",
"O c #C07D50",
"+ c #DF9B6C",
"@ c #382F82",
"# c #6256C2",
"$ c #278785",
"% c #00AEAD",
"& c #999A9C",
/* pixels */
"                                                            ",
"                                                            ",
"                                                            ",
"                                                            ",
"                                                            ",
"                                                            ",
"                                                            ",
"                                                            ",
"                                                            ",
"                                                            ",
"                                                            ",
"                                                            ",
"              ......XXXXXXXXXXXXXXXXXXXXXXXX                ",
"              ......XXXXXXXXXXXXXXXXXXXXXXXX                ",
"              ......XXXXXXXXXXXXXXXXXXXXXXXX                ",
"              ......XXXXXXXXXXXXXXXXXXXXXXXX                ",
"              ......XXXXXXXXXXXXXXXXXXXXXXXX                ",
"              ......XXXXXXXXXXXXXXXXXXXXXXXX                ",
"              ......XXXXXXXXXXXXXXXXXXXXXXXX                ",
"              ......XXXXXXXXXXXXXXXXXXXXXXXX                ",
"              ......XXXXXXXXXXXXXXXXXXXXXXXX                ",
"              XXXXXXXXXXXXXXXXXXXXXXXXXXXXXX                ",
"              XXXXOO++++++++++++++++++++XXXX                ",
"              XOOOOO+++++++++++++++++++++++X                ",
"              XOOOOO+++++++++++++++++++++++X                ",
"              OOOOOO++++++++++++++++++++++++                ",
"              OOOOOO++++++++++++++++++++++++                ",
"              OOOOOO++++++++++++++++++++++++                ",
"              OOOOOO++++++++++++++++++++++++                ",
"              OOOOOO++++++++++++++++++++++++                ",
"              OOOOOO++++++++++++++++++++++++                ",
"              OOOOOO++++++++++++++++++++++++                ",
"              OOOOOO++++++++++++++++++++++++                ",
"              OOOOOO++++++++++++++++++++++++                ",
"              OOOOOO++++++++++++++++++++++++                ",
"              OOOOOO++++++++++++++++++++++++                ",
"           $$$%%%%%%%%%%%%%%%%%%%%%%%%%%%%%%%%%             ",
"           $$$%%%%%%%%%%%%%%%%%%%%%%%%%%%%%%%%%             ",
"           $$$%%%%%%%%%%%%%%%%%%%%%%%%%%%%%%%%%             ",
"           $$$%%%%%%%%%%%%%%%%%%%%%%%%%%%%%%%%%             ",
"           $$$%%%%%%%%%%%%%%%%%%%%%%%%%%%%%%%%%             ",
"           $$$%%%%%%%%%%%%%%%%%%%%%%%%%%%%%%%%%             ",
"           OOO%%%%%%%%%%%%%%%%%%%%%%%%%%%%%%+++             ",
"           OOO%%%%%%%%%%%%%%%%%%%%%%%%%%%%%%+++             ",
"           OOO%%%%%%%%%%%%%%%%%%%%%%%%%%%%%%+++             ",
"           OOO%%%%%%%%%%%%%%%%%%%%%%%%%%%%%%+++             ",
"           OOO%%%%%%%%%%%%%%%%%%%%%%%%%%%%%%+++             ",
"           OOO%%%%%%%%%%%%%%%%%%%%%%%%%%%%%%+++             ",
"                 @@@#####################                   ",
"                 @@@#####################                   ",
"                 @@@#####################                   ",
"                 @@@######      @@@######                   ",
"                 @@@######      @@@######                   ",
"                 @@@######      @@@######                   ",
"                 @@@######   ooooooooo                      ",
"                 @@@######   ooooooooo                      ",
"                 @@@######   ooooooooo                      ",
"                 ooo&&&&&&                                  ",
"                 ooo&&&&&&                                  ",
"                 ooo&&&&&&                                  "
};
