/* XPM */
static char *__c1707839007[] = {
/* columns rows colors chars-per-pixel */
"60 60 228 2 ",
"   c None",
".  c #06070B",
"X  c #022018",
"o  c #042825",
"O  c #182D2F",
"+  c #0E3E30",
"@  c #173638",
"#  c #082D33",
"$  c #0A433A",
"%  c #19403B",
"&  c #1C4F4A",
"*  c #194B42",
"=  c #035344",
"-  c #0E5549",
";  c #055D4E",
":  c #0D5B4C",
">  c #075747",
",  c #145246",
"<  c #14554C",
"1  c #19554D",
"2  c #12594C",
"3  c #155747",
"4  c #0B5B54",
"5  c #075B5A",
"6  c #135451",
"7  c #1B5453",
"8  c #145A52",
"9  c #1C5D55",
"0  c #165D5A",
"q  c #0D4B48",
"w  c #244B44",
"e  c #21524B",
"r  c #255D5C",
"t  c #235856",
"y  c #0B675D",
"u  c #1D6559",
"i  c #156554",
"p  c #216456",
"a  c #195D60",
"s  c #2D5765",
"d  c #056563",
"f  c #0C646C",
"g  c #056A6A",
"h  c #0B6C6D",
"j  c #086A65",
"k  c #186563",
"l  c #176868",
"z  c #0C746D",
"x  c #10706C",
"c  c #036B75",
"v  c #096C73",
"b  c #086A75",
"n  c #037F77",
"m  c #1A7577",
"M  c #187579",
"N  c #136676",
"B  c #256769",
"V  c #326671",
"C  c #24787B",
"Z  c #2E7D7A",
"A  c #088A7E",
"S  c #238076",
"D  c #328677",
"F  c #217B83",
"G  c #1E8583",
"H  c #138C8D",
"J  c #1C878F",
"K  c #0C918E",
"L  c #1B8E91",
"P  c #0E9F98",
"I  c #1D9994",
"U  c #1F969C",
"Y  c #149C9A",
"T  c #1B9D9C",
"R  c #149794",
"E  c #1E9788",
"W  c #218482",
"Q  c #20858D",
"!  c #298587",
"~  c #278994",
"^  c #279A96",
"/  c #309E97",
"(  c #2D908F",
")  c #0EA596",
"_  c #12A195",
"`  c #1BA197",
"'  c #14A29B",
"]  c #1AA29C",
"[  c #16A99C",
"{  c #17A89B",
"}  c #28A798",
"|  c #35A39C",
" . c #1A9EA4",
".. c #239DA2",
"X. c #16A1A1",
"o. c #1DA5A1",
"O. c #16ACA2",
"+. c #1CACA3",
"@. c #1CB4A6",
"#. c #14BCA3",
"$. c #1CBAA5",
"%. c #1FB6A9",
"&. c #1CB9A9",
"*. c #20A6A4",
"=. c #22ABA4",
"-. c #2BADA8",
";. c #22B5AB",
":. c #23BAAC",
">. c #2BB9A8",
",. c #25B7A8",
"<. c #33B5A6",
"1. c #31BFB1",
"2. c #2FB3AA",
"3. c #509288",
"4. c #598284",
"5. c #669CA6",
"6. c #1AC3A9",
"7. c #2DC2AD",
"8. c #3AD3BB",
"9. c #36E6BF",
"0. c #4BCAB8",
"q. c #5BCBBF",
"w. c #4AD9BF",
"e. c #53D4BC",
"r. c #5FD0BE",
"t. c #60CABE",
"y. c #34CCC0",
"u. c #20D2C4",
"i. c #3CD9C5",
"p. c #3DE3CC",
"a. c #3DE2C0",
"s. c #48CCC4",
"d. c #58CFC2",
"f. c #43D0C2",
"g. c #4BD2C5",
"h. c #4BDBC6",
"j. c #46DECD",
"k. c #4ADECB",
"l. c #45D7C9",
"z. c #58DAC8",
"x. c #49DED3",
"c. c #52D8D1",
"v. c #7FCCC6",
"b. c #6ED3C7",
"n. c #67DAD3",
"m. c #72DFDC",
"M. c #68C8C6",
"N. c #44E1C4",
"B. c #43E3CD",
"V. c #4EE5CA",
"C. c #44E3D2",
"Z. c #4CE1D4",
"A. c #48ECD4",
"S. c #53E4D3",
"D. c #5DE4D4",
"F. c #56EDDA",
"G. c #58F1DB",
"H. c #5CE0C9",
"J. c #6AE7D8",
"K. c #7BE6D9",
"L. c #78E0E1",
"P. c #7CF6E1",
"I. c #86D3C8",
"U. c #90DED0",
"Y. c #A2D4C8",
"T. c #A6D8DF",
"R. c #8DEADE",
"E. c #84EFDB",
"W. c #92E3D4",
"Q. c #95EDD7",
"!. c #9AEAD5",
"~. c #94ECDC",
"^. c #99EBDB",
"/. c #97E5D9",
"(. c #8CF1D5",
"). c #9AF2DC",
"_. c #ACE7DA",
"`. c #A6EBDB",
"'. c #B8E7DF",
"]. c #86EFE0",
"[. c #95EEE3",
"{. c #9BECE5",
"}. c #86F1E3",
"|. c #89F2E9",
" X c #98F2E6",
".X c #85FCF4",
"XX c #A6E9E7",
"oX c #B5ECE0",
"OX c #BBE9E9",
"+X c #A8F7E9",
"@X c #B6F2E2",
"#X c #BBF5E8",
"$X c #B8EBF3",
"%X c #A5F9F2",
"&X c #B9FDFC",
"*X c #D1E1DE",
"=X c #DBDFEB",
"-X c #C9DAEE",
";X c #CCEEE7",
":X c #C4E1EF",
">X c #D2EBE4",
",X c #DFEEEB",
"<X c #D0EDEB",
"1X c #C4F2E4",
"2X c #C5F1EC",
"3X c #DDF0EE",
"4X c #C8ECFB",
"5X c #D2EBFC",
"6X c #C4FDFD",
"7X c #C8F8F5",
"8X c #DEF5F1",
"9X c #DBFDFD",
"0X c #D8F8F6",
"qX c #E5EEE7",
"wX c #E5ECEB",
"eX c #EAE8E6",
"rX c #F0EFEC",
"tX c #FBE8E2",
"yX c #E6ECF3",
"uX c #F4EAF2",
"iX c #FAEAF4",
"pX c #E5F5F4",
"aX c #EDF5FD",
"sX c #E4FCFE",
"dX c #EBFBFD",
"fX c #E8F6F7",
"gX c #F6F1FA",
"hX c #EDF6EB",
/* pixels */
"                                                                                                                        ",
"                                                                                                                        ",
"                                                                                                                        ",
"                                                                                                                        ",
"                                                                                                                        ",
"                                                                                                                        ",
"                                                                                                                        ",
"                                                                                                                        ",
"                                                                                                                        ",
"                                                                                                                        ",
"                                                                                                                        ",
"                                                                                                                        ",
"                                                                                                                        ",
"                                                                                                                        ",
"                                                    N f z g h z f v x                                                   ",
"                                                  m M m m m M f j f f                                                   ",
"                                                t l ~ $X$X4X5X-X5X5X&Xs                                                 ",
"                                            V v h N f 1X>XfXuXuXiXrXuXs                                                 ",
"                                            s M h g g 1X;XfXfXaXdXgX9X3.                                                ",
"                                            V j F ( ^ 1X;X*XoXY.Y.M.e.7XpXr                                             ",
"                                        1 4 - 5 | 6.>.;X@X(.XXw.z.V.9.&XwXB                                             ",
"                                        : 4 : 8 | 6.7.1X@X!.XXN.N.9.w.6XyXk                                             ",
"                                        : 8 i k } #.8._.`.'.OXK.K.|.|.v.n.9X,Xf                                         ",
"                                  1 1 9 : = $.;.i.p.F.`._.1X2X^.^.!.^.b.s.9X,Xf                                         ",
"                                  2 6 8 : q #.&.i.B.G.(.).#X2X_.!.Q.Q.H.g.dXwXf                                         ",
"                                  2 8 2 = s #.%.8.C.G.`.oX7X<XOXoX0X7Xz.D.pX3Xf                                         ",
"                                  2 2 < : 9 p.x.j.Z.G.#X;XfXrX>X1XrXaXq.k.0XsXM                                         ",
"                                  2 2 1 : < p.x.j.Z.F.2X>XfXuX>X1XiXaXt.0.9X8X( 5.r                                     ",
"                                  < q 8 i r B.C.k.i.Z.@X;X<X2XI.b.e.0.fXrXn.z.fX9Xj                                     ",
"                                w , 1 0 S Z &.7.' _ { Q.!./. Xd.8.C.N.sXqXD.J.,X9Xg                                     ",
"                              u : 2 7 W T T &.%.*.=.+.Q.~.^.{.d.w.p.j.9X,XS.A.qXsXc                                     ",
"                              p : 2 7 W T T &.:.] ] ] Q.~.~.[.}.].p.h.2XwXV.S.wXsXc                                     ",
"                              u : 3 7 G ] ' %.;.o.K H ~.~.~.[.R.R.p.B.2X8Xi.A.qXdXv                                     ",
"                              u : 2 7 W ' ' ;.;.T H J ~.R.^.~.~.!.g.h.%X XXX+XgXaXv                                     ",
"                              u 4 2 7 W ' ' ,.;.Y H F  X~.[.^.^.~.~.E.} 6.8XiXtXaXc                                     ",
"                              p : 1 7 S ' ' =.%.R H Q z.e.P.R.^.Q.(.~.-.7.9XpXeXfXc                                     ",
"                              - : 2 7 W ' X. .^ ~ J H p.g.|.~./.W.%XL.1.>.K.K.:X6Xl                                     ",
"                              < : 2 7 W X.T '  .R H H B.g..Xn.| / / -.S.A.k.S.6X6XB                                     ",
"                              - : 2 7 G Y ' o. .o.o.o.T } +.'  . .' ) x.p.g.S.T.4.o                                     ",
"                              - : : 7 C H H ;.;.:.%.;.' ' ' P ' ) [ [ :.' w.k.k &                                       ",
"                              - : ; 1 C L H :.:.%.,.%.' ' X.+.@.;.;.:.+.] i.g.y e                                       ",
"                              - : : 1 C H K ;.%.$.@.O.+.;.;.;.;.;.;.;.O.R i.s.y %                                       ",
"                              r : 1 & B y ; %.;.+.Y ' %.;.;.@.%.:.;.;.{ I y.g.; $                                       ",
"                                  @ 0 > : 1 #.;.=.X.Y $.$.$.$.$.&.&.%.*.U u.h.: +                                       ",
"                                  e t : y 7 $.:.Y Y ' $.%.$.,.%.%.&.:.R ^ O.z                                           ",
"                                  * t 2 - 8 J..X1.' X.%.;.%.$.$.%.$.>.R ~ y t                                           ",
"                                  @ 8 : 2 : `.~.} )  .2.P ,.k.G.V.j.j.A ! 0 w                                           ",
"                                  O > : 6 : U.).<.' *.K.E.}.|.d.l.j.i.n ! #                                             ",
"                                  O < 2 1 2 I.u E 7.-.).Q.~. Xd.w.| y 5 k                                               ",
"                                      X , 8 2 0 / #.$.!.+XU.D > ; 4 : : ,                                               ",
"                                        t < < 4 E 7.} : 2 : 8 2 : 8 u <                                                 ",
"                                        o $ < 6 k d 7 : : 2 1 1 $                                                       ",
"                                            * 9 2 3 1 2 p ,                                                             ",
"                                                                                                                        ",
"                                                                                                                        ",
"                                                                                                                        ",
"                                                                                                                        ",
"                                                                                                                        ",
"                                                                                                                        ",
". . . . . . . . .                                                                                                       "
};
