/* XPM */
static char *__c1707839007[] = {
/* columns rows colors chars-per-pixel */
"60 60 112 2 ",
"   c None",
".  c #091F1D",
"X  c #0A1E1D",
"o  c #002C2B",
"O  c #002C2C",
"+  c #092C2E",
"@  c #002B30",
"#  c #002C30",
"$  c #002E30",
"%  c #1B443C",
"&  c #21403B",
"*  c #183D50",
"=  c #0F4044",
"-  c #0C5647",
";  c #07594B",
":  c #035F48",
">  c #015C4B",
",  c #045D4B",
"<  c #065F4D",
"1  c #0C5A4A",
"2  c #0D5A4A",
"3  c #0E5B4B",
"4  c #0B5C4B",
"5  c #095B4D",
"6  c #0E5A4D",
"7  c #0A5C4E",
"8  c #0A5E4F",
"9  c #175347",
"0  c #125649",
"q  c #17554A",
"w  c #14564A",
"e  c #15574B",
"r  c #17564B",
"t  c #17544C",
"y  c #16554C",
"u  c #14564C",
"i  c #15574D",
"p  c #17564D",
"a  c #15564E",
"s  c #1F504A",
"d  c #1D524A",
"f  c #1F524B",
"g  c #195549",
"h  c #18544A",
"j  c #1B544B",
"k  c #18564B",
"l  c #1A564A",
"z  c #1C544B",
"x  c #1C534D",
"c  c #18554D",
"v  c #19554D",
"b  c #18574C",
"n  c #19574C",
"m  c #18574E",
"M  c #125949",
"N  c #10584A",
"B  c #11594B",
"V  c #12594B",
"C  c #105A4B",
"Z  c #14584B",
"A  c #11594D",
"S  c #12584D",
"D  c #125A4C",
"F  c #135A4C",
"G  c #14584D",
"H  c #18584A",
"J  c #19594B",
"K  c #01585F",
"L  c #1E5A5A",
"P  c #224F4A",
"I  c #254C49",
"U  c #254F4B",
"Y  c #2C4A48",
"T  c #2D4D4A",
"R  c #2C4C4B",
"E  c #2A4C4D",
"W  c #215048",
"Q  c #21504A",
"!  c #22514B",
"~  c #24514A",
"^  c #23524C",
"/  c #24514C",
"(  c #24534D",
")  c #28514D",
"_  c #2A534F",
"`  c #274C55",
"'  c #285550",
"]  c #02614D",
"[  c #09624C",
"{  c #096151",
"}  c #295E66",
"|  c #076265",
" . c #0F6063",
".. c #0B6468",
"X. c #0E676D",
"o. c #166665",
"O. c #1B6566",
"+. c #1B666C",
"@. c #166C69",
"#. c #126A6E",
"$. c #0D6C72",
"%. c #106771",
"&. c #126970",
"*. c #106A72",
"=. c #156D71",
"-. c #126F77",
";. c #146F74",
":. c #176E77",
">. c #1A6C78",
",. c #047176",
"<. c #296063",
"1. c #286465",
/* pixels */
"                                                                                                                        ",
"                                                                                                                        ",
"                                                                                                                        ",
"                                                                                                                        ",
"                                                                                                                        ",
"                                                                                                                        ",
"                                                                                                                        ",
"                                                                                                                        ",
"                                                                                                                        ",
"                                                                                                                        ",
"                                                                                                                        ",
"                                                          ` *                                                           ",
"                                                        } %. .+                                                         ",
"                                                        +.,...o                                                         ",
"                                                        @.*.:.#                                                         ",
"                                                        o.$.>.#                                                         ",
"                                                        O.*.-.O                                                         ",
"                                                        <.#.:.O                                                         ",
"                                                        1.=.X.O                                                         ",
"                                                        L | K =                                                         ",
"                                                        A V G Y                                                         ",
"                                                        V A m E                                                         ",
"                                                        V Z w R                                                         ",
"                                                        V G 0 '                                                         ",
"                                                        A V C (                                                         ",
"                                                        Z V V ^                                                         ",
"                                                        j V V d                                                         ",
"                                                        ) V p H                                                         ",
"                                                        s 4 j V                                                         ",
"                                                        s V Z j                                                         ",
"                                                        - 2 H j                                                         ",
"                                                        0 V j G                                                         ",
"                                                        2 p u V                                                         ",
"                                                        < b A w                                                         ",
"                                                        , x b w                                                         ",
"                                                        > p b V                                                         ",
"                                                        { G b u                                                         ",
"                                                        8 A b A                                                         ",
"                                                        7 A p 3                                                         ",
"                                                        7 u u 2                                                         ",
"                                                        ; A p 2                                                         ",
"                                                        7 A u 2                                                         ",
"                                                        7 p t V                                                         ",
"                                                        , b p V                                                         ",
"                                                        ] p w V                                                         ",
"                                                        V V p H                                                         ",
"                                                        ~ 6 w 9                                                         ",
"                                                        ( V b j                                                         ",
"                                                        ^ 2 0 z                                                         ",
"                                                        _ V 0 ^                                                         ",
"                                                        ^ 2 V I                                                         ",
"                                                        ^ 2 V I                                                         ",
"                                                        W ] [ %                                                         ",
"                                                        T H j &                                                         ",
"                                                          X X                                                           ",
"                                                                                                                        ",
"                                                                                                                        ",
"                                                                                                                        ",
"                                                                                                                        ",
"                                                                                                                        "
};
