/* XPM */
static char *__c1707839006[] = {
/* columns rows colors chars-per-pixel */
"60 60 232 2 ",
"   c None",
".  c #0C4B3D",
"X  c #13463E",
"o  c #1D3F4B",
"O  c #034747",
"+  c #1F4C4F",
"@  c #045C4B",
"#  c #0D5A4C",
"$  c #085747",
"%  c #145546",
"&  c #185647",
"*  c #155847",
"=  c #13564B",
"-  c #195649",
";  c #135A4D",
":  c #0F5553",
">  c #0C5B53",
",  c #06565A",
"<  c #155550",
"1  c #145A52",
"2  c #1B5D55",
"3  c #135A5A",
"4  c #1B5C5D",
"5  c #1D5757",
"6  c #244C4A",
"7  c #245047",
"8  c #28575A",
"9  c #3C5955",
"0  c #08604B",
"q  c #07655A",
"w  c #18625A",
"e  c #0B5B61",
"r  c #155C60",
"t  c #1B5666",
"y  c #325C68",
"u  c #0D6C64",
"i  c #036D6B",
"p  c #0D6A6E",
"a  c #066267",
"s  c #1D6766",
"d  c #136B67",
"f  c #1B6863",
"g  c #136A6C",
"h  c #1D6A6A",
"j  c #1A656B",
"k  c #11716D",
"l  c #0D6C71",
"z  c #176672",
"x  c #136B72",
"c  c #1B6A72",
"v  c #097A78",
"b  c #197374",
"n  c #266263",
"m  c #266468",
"M  c #256875",
"N  c #307274",
"B  c #415E5C",
"V  c #516E74",
"C  c #398179",
"Z  c #1D868C",
"A  c #138B8D",
"S  c #1A8A8C",
"D  c #168589",
"F  c #1B9E9B",
"G  c #189795",
"H  c #118E8E",
"J  c #25858D",
"K  c #218A8E",
"L  c #289988",
"P  c #219D9C",
"I  c #259896",
"U  c #359B90",
"Y  c #14AF8D",
"T  c #0EA59B",
"R  c #0EA096",
"E  c #15A29C",
"W  c #1BA29D",
"Q  c #1CAA9F",
"!  c #19A596",
"~  c #1FB99D",
"^  c #26A39F",
"/  c #29A898",
"(  c #30A591",
")  c #1A9EA0",
"_  c #16A2A3",
"`  c #1DA5A3",
"'  c #1BABA2",
"]  c #17AAA0",
"[  c #1BB4A4",
"{  c #16BCA4",
"}  c #1CB9A6",
"|  c #1EB7A8",
" . c #1BB9A9",
".. c #16B9A9",
"X. c #21AEA6",
"o. c #21AFA9",
"O. c #24A4A5",
"+. c #23B5A6",
"@. c #2AB3A5",
"#. c #23B5AB",
"$. c #23B9AC",
"%. c #29BCAE",
"&. c #26B7A8",
"*. c #2BB9B2",
"=. c #39B9B4",
"-. c #36AEA7",
";. c #5DBAB7",
":. c #50B9B1",
">. c #64BCB8",
",. c #0EC295",
"<. c #0FC0AE",
"1. c #2CC8BB",
"2. c #3ACCBE",
"3. c #2AD1BF",
"4. c #2FCAB0",
"5. c #5AC8BA",
"6. c #40CBB4",
"7. c #6BC6BB",
"8. c #36CDC3",
"9. c #26D4C5",
"0. c #38D6C8",
"q. c #3DD8D0",
"w. c #3DE3CC",
"e. c #3CE3C5",
"r. c #39E4D2",
"t. c #24E4CB",
"y. c #44D3C4",
"u. c #45DDCC",
"i. c #4CDBCC",
"p. c #49D9C7",
"a. c #5AD6C4",
"s. c #54D8C4",
"d. c #52DBCA",
"f. c #58D6C7",
"g. c #44DED1",
"h. c #4BDCD2",
"j. c #50DED2",
"k. c #5CCBC2",
"l. c #65CEC0",
"z. c #60D4C3",
"x. c #6BD0C0",
"c. c #7CD2C5",
"v. c #43E3CC",
"b. c #48E0CA",
"n. c #5CF0CE",
"m. c #42E2D1",
"M. c #49E2D4",
"N. c #54E5D8",
"B. c #5AE4CB",
"V. c #6DE8D1",
"C. c #77E9D7",
"Z. c #7AF2D8",
"A. c #68F9DC",
"S. c #5DEFE4",
"D. c #76F8E7",
"F. c #87BDBA",
"G. c #83DFD3",
"H. c #81D1C6",
"J. c #83EADC",
"K. c #89E7D5",
"L. c #94E5D5",
"P. c #9DE4D4",
"I. c #94ECD5",
"U. c #9BE9D5",
"Y. c #95EBDA",
"T. c #9AECDB",
"R. c #9AE5DA",
"E. c #89F4D7",
"W. c #93F2DB",
"Q. c #9DF2DF",
"!. c #8DE5CD",
"~. c #A0E7D7",
"^. c #A3EBDB",
"/. c #A7E5D9",
"(. c #B2EBDE",
"). c #BDE5DD",
"_. c #A0F1DE",
"`. c #9EDFE1",
"'. c #8BEFE4",
"]. c #91EDE2",
"[. c #83F4E3",
"{. c #88F4E9",
"}. c #97F7E5",
"|. c #A3E5E2",
" X c #BCEDE3",
".X c #B4ECEC",
"XX c #BAE6E9",
"oX c #B3F2E4",
"OX c #BCF1E5",
"+X c #BBF3EA",
"@X c #B3F8EB",
"#X c #B2F4F1",
"$X c #C4E3DE",
"%X c #CED5E8",
"&X c #E1DDF6",
"*X c #C4EEE5",
"=X c #CAECE4",
"-X c #C9EEEA",
";X c #C5ECE8",
":X c #D4EBE5",
">X c #D8E8E8",
",X c #C3F3E4",
"<X c #C6F2EA",
"1X c #CFF0E9",
"2X c #D5F3EA",
"3X c #C9F5F5",
"4X c #D3F5F5",
"5X c #DEF5F3",
"6X c #DDF7FC",
"7X c #D9FBF8",
"8X c #E2EDEC",
"9X c #EDEBED",
"0X c #EAE8E7",
"qX c #F6E7EE",
"wX c #F1EFEE",
"eX c #F9E8EE",
"rX c #E5F2ED",
"tX c #ECF3EE",
"yX c #ECEDF2",
"uX c #E7EBF3",
"iX c #F1EDF3",
"pX c #F2EDF9",
"aX c #F5E8F2",
"sX c #E4F3F3",
"dX c #EAF2F3",
"fX c #E2F2FA",
"gX c #E9F2FA",
"hX c #EEFCFF",
"jX c #E5FAF6",
"kX c #F0F1F1",
"lX c #FEFBFF",
"zX c #F6F6FD",
/* pixels */
"                                                                                                                        ",
"                                                                                                                        ",
"                                                                                                                        ",
"                                                                                                                        ",
"                                                                                                                        ",
"                                                                                                                        ",
"                                                                                                                        ",
"                                                                                                                        ",
"                                                                                                                        ",
"                                                                                                                        ",
"                                                                                                                        ",
"                                                                                                                        ",
"                                                  z i i i i i i i i i p                                                 ",
"                                                d x j g g g g g x x z x 5                                               ",
"                                                s q d d d d d d s f f d 8                                               ",
"                                          j M d fXrXqXqXqXqXeXqX>X1X XoX^.M x                                           ",
"                                          d c b fXjXdXdXdXdXsXsXyXyX:X).F.j g                                           ",
"                                          u j b 6XyXyXiXpXfXgXkXrX5X*X$XF.p i                                           ",
"                                    u t 3 hX2XlXs.y.y.y.y.p.C.U.~./.*X X7.@. .-.6 7                                     ",
"                                    p c g pX5XyX7.h.v.e.p.s.C.U.P.(.<X XH.-.<.[ 1 0                                     ",
"                                    g M d zXrXyXa.u.d.d.d.p.Z.K.L.(.*X*Xc.@...^ 5 -                                     ",
"                              b y N 7X@X7Xk.7.5.[.A.Z.Z.Z.K.Q.oX X X^.U.V.q.h.h.&.%.:.y 9                               ",
"                              x b N aXiX>Xd.b.B.J.`.R.R.L.^.oXOX XoXU.T.V.y.p.p.+.+.,.@ $                               ",
"                              g e M pX2XhXf.a.a.'.].].Y.Y.~.oX-X<XoXU.U.V.b.h.p.+.+.%.> *                               ",
"                              l , h yX0XlXb.v.b.4X>X-X,XoX-X:XdXuX7X*X+XK.i.u.u.2.8.i.3 &                               ",
"                              l e m pX0XlXb.r.M.hXjXjX=X,X,X:XtX8X5X*XOXK.i.g.u.b.u.v.> &                               ",
"                              l x j aX8XlXb.r.b.gXjXdX>X=X=X:XtX8X8X=X*XG.i.g.u.v.u.N.1 *                               ",
"                        y f 8 V C C XX%X XC.n.J..X&XXXXX.X|.-X:X=X=X/.(.x.y.8.y.[ $.@.I I U + 6                         ",
"                        z p n yX9X5Xe.u.6.hXeXlXz.v.v.v.v.M.D.K.R.P.^.P.5.E E ] $.$.X.E ) ^ 3 &                         ",
"                        x x n dXdX7Xi.N.6.dXtXiXz.b.i.b.i.d.J.U.I.Y.I.U.5.T Q ] #.$.o.E E ^ 3 &                         ",
"                        x p n iXkX6Xb.M.2.jXrXyXs.v.d.s.a.a.J.I.W.I.Y.L.5.F W ` #.#.o.E E O.3 -                         ",
"                        x x n iXwXgXd.i.0.-XOX4Xd.h.0.[.W.W.T.Y.Y.Y.Y.L.>.Z A P #...#.E E ^ 3 -                         ",
"                        x x n iXwXgXi.b.v.3X,X4Xd.m.w.[.W.Y.T.Y.Y.Y.Y.G.;.Z H P o.| ' _ E ^ 3 -                         ",
"                        x x n iXkX7Xa.b.f.@X<X3X5.v.y.[.W.Y.Y.T.Y.Y.G.G.;.Z A ) o.| ' _ E O.3 -                         ",
"                        g p n aXrXwXkXwXzX+.$. .'.E.U.T.T.Y.T.Y.K.V.h.q.*.H J G ) _ F ) W ^ 3 -                         ",
"                        c z n pXiXdXqX9XuX&.&...'.E.I.L.L.Y.L.L.W.C.y.h.=.A D K ) _ F ' O.G 4 -                         ",
"                        b x n yXwXiXlXlXhX@.*.[ }.}.Q.}.^.Q.}.^.Y.V.N.1.*.K K P ^ _ F G G I r &                         ",
"                        l p s -X1X#Xe.m.b.u.h.N.Q E _ _ _ _ _ _ W W E R ' #.| | ..| ` J S v 4 ;                         ",
"                        k i m  X*X+Xv.i.i.v.j.N.R T E E W E _ E _ E _ T ' #.$.#.| +.W J Z v 3 0                         ",
"                        l a f  X=X.Xw.u.u.M.h.S.E Q O.` ` ` ` O.` ` O.Q ] [ .... .} W D D j + X                         ",
"                              . * > v.m.g.E P W $. .$.$.| $.| $.| $.| *.] E R Q &.+./ : :                               ",
"                              . * > w.m.g.F G W #...| } } } } } } } | $.' E ! Q @.+.( < :                               ",
"                              . # > r.q.u.F F W #...| | } #.} |  . . .%.' E ! G o.+.( < 5                               ",
"                              X ; > 9.8.8.F F F $...} #.} { } } +.+.+.%.W E R =.'.{.L.< =                               ",
"                              X ; > 3.9.9.T F W $. . .| | | } | { { { &.W W T =.^.W.L.0 @                               ",
"                                    t.0.0.E F G ' ..| ..[ +.+.%.4.%.%.*.+.! E =.R.!.|.2 2                               ",
"                                    , , a J J G h.h.u.u.u.u.D.[.'.'.'.{.a.+.{ / 3 # B                                   ",
"                                    & & > A A G i.M.i.i.i.g.C.I.T.L.Y.#X:.{ Y L > >                                     ",
"                                          D D v j.u.w.w.w.i.C.^.T.}.Q.].5./ Y L 5 2                                     ",
"                                          r e O b k g g g q $ % $ = # O w q q 6                                         ",
"                                          % @ # ; # # ; ; # # # = # # # # # &                                           ",
"                                          6 ; ; ; 1 1 ; # w 2 ; ; ; & ; ; 1 -                                           ",
"                                                                                                                        ",
"                                                                                                                        ",
"                                                                                                                        ",
"                                                                                                                        ",
"                                                                                                                        ",
"                                                                                                                        ",
"                                                                                                                        ",
"                                                                                                                        "
};
