/* XPM */
static char *b1a5dce2777b4245fb8c74879d0105a2PIRtc2GkUkoRlxDN[] = {
/* columns rows colors chars-per-pixel */
"60 60 32 1 ",
"  c #67502C",
". c #6F562F",
"X c #765C34",
"o c #7A6137",
"O c #7F6238",
"+ c #7F653A",
"@ c #81673D",
"# c #87683B",
"$ c #8A6D3F",
"% c #8E6E3E",
"& c #8C6E42",
"* c #8F7141",
"= c #927443",
"- c #977441",
"; c #927345",
": c #997945",
"> c #A27F4C",
", c #A0844D",
"< c #A58850",
"1 c #AA8B52",
"2 c #AB8C55",
"3 c #AF8F55",
"4 c #AF8F5A",
"5 c #B48F57",
"6 c #B39158",
"7 c #B7955B",
"8 c #B5925D",
"9 c #B9965C",
"0 c #BC985E",
"q c #B89460",
"w c #BF9A61",
"e c #C29D62",
/* pixels */
"qqqq3336qqqeeeeeeeeeeeeeeeeeeeqqqqeeeeeeeeeeeeeeeeeewqqq----",
"qqqq3336qqqeeeeeeeeeeeeeeeeeeeqqqqeeeeeeeeeeeeeeeeeewqqq----",
"qqqq3336qqqeeeeeeeeeeeeeeeeeeeqqqqeeeeeeeeeeeeeeeeeewqqq----",
"qqqq6666888000055557779000wwwwqqqqwwww0000000wwwwwww9444::::",
"qqqqqqq83333333----,,,<333qqqqqqqqqqq83333333qqqqqqq4,,,,,,,",
"qqqqqqq83333333----,,,<333qqqqqqqqqqq83333333qqqqqqq4,,,,,,,",
"qqqqqqq83333333----,,,<333qqqqqqqqqqq83333333qqqqqqq4,,,,,,,",
"3333qqqqqqqqqqq3333qqq8333,,,,,,,,,,,,,,,33333333qqqqqqq----",
"3333qqqqqqqqqqq3333qqq8333,,,,,,,,,,,,,,,33333333qqqqqqq----",
"3333qqqqqqqqqqq3333qqq8333,,,,,,,,,,,,,,,33333333qqqqqqq----",
"3333qqqqqqqqqqq3333qqq8333,,,,,,,,,,,,,,,33333333qqqqqqq----",
"----OOOOOOO--------OOOX       OOOOOOOX   OOOO       .OOO    ",
"----OOOOOOO--------OOOX       OOOOOOOX   OOOO       .OOO    ",
"----OOOOOOO--------OOOX       OOOOOOOX   OOOO       .OOO    ",
"----OOOOOOO--------OOOX       OOOOOOOX   OOOO       .OOO    ",
"qqqqeee7,,,eeeeeeeeeeeeeee,,,,eeeeeeeeeeeqqqq33333331,,,qqqq",
"qqqqeee7,,,eeeeeeeeeeeeeee,,,,eeeeeeeeeeeqqqq33333331,,,qqqq",
"qqqqeee7,,,eeeeeeeeeeeeeee,,,,eeeeeeeeeeeqqqq33333331,,,qqqq",
"qqqqeee7,,,eeeeeeeeeeeeeee,,,,eeeeeeeeeeeqqqq33333331,,,qqqq",
"3333qqqqqqq3333,,,,3331,,,----,,,,3333333qqqqqqqqqqqqqqq3333",
"3333qqqqqqq3333,,,,3331,,,----,,,,3333333qqqqqqqqqqqqqqq3333",
"3333qqqqqqq3333,,,,3331,,,----,,,,3333333qqqqqqqqqqqqqqq3333",
"<<<<1112666888811113333111----44448888888666666661111111<<<<",
",,,,,,,<333qqqq33333333333----qqqqqqqqqqq33333333,,,,,,,,,,,",
",,,,,,,<333qqqq33333333333----qqqqqqqqqqq33333333,,,,,,,,,,,",
",,,,,,,<333qqqq33333333333----qqqqqqqqqqq33333333,,,,,,,,,,,",
"       .OOOOOOO----OOOX              .OOOOOOOOOOO---%OOO    ",
"       .OOOOOOO----OOOX              .OOOOOOOOOOO---%OOO    ",
"       .OOOOOOO----OOOX              .OOOOOOOOOOO---%OOO    ",
"       .OOOOOOO----OOOX              .OOOOOOOOOOO---%OOO    ",
"qqqqeeeeeeeqqqq33333337eeeeeeeeeeeeeeeeeeeeeeeeeeeeewqqq,,,,",
"qqqqeeeeeeeqqqq33333337eeeeeeeeeeeeeeeeeeeeeeeeeeeeewqqq,,,,",
"qqqqeeeeeeeqqqq33333337eeeeeeeeeeeeeeeeeeeeeeeeeeeeewqqq,,,,",
"qqqqeeeeeeeqqqq33333337eeeeeeeeeeeeeeeeeeeeeeeeeeeeewqqq,,,,",
"qqqq3336qqqqqqqqqqqqqq8333,,,,,,,,,,,<333,,,,3333,,,,,,,----",
"qqqq3336qqqqqqqqqqqqqq8333,,,,,,,,,,,<333,,,,3333,,,,,,,----",
"qqqq3336qqqqqqqqqqqqqq8333,,,,,,,,,,,<333,,,,3333,,,,,,,----",
"qqqq6666888888844444443111,,,,<<<<<<<1333<<<<1111,,,,111::::",
"eeeeqqq83333333,,,,,,,,,,,,,,,333333333333333,,,,,,,1qqq,,,,",
"eeeeqqq83333333,,,,,,,,,,,,,,,333333333333333,,,,,,,1qqq,,,,",
"eeeeqqq83333333,,,,,,,,,,,,,,,333333333333333,,,,,,,1qqq,,,,",
"       .OOO--------OOOX           OOO#---OOOOOOOO           ",
"       .OOO--------OOOX           OOO#---OOOOOOOO           ",
"       .OOO--------OOOX           OOO#---OOOOOOOO           ",
"       .OOO--------OOOX           OOO#---OOOOOOOO           ",
"eeee,,,1qqqeeeeeeeeqqqqqqq,,,,eeeeeeeeeee,,,,eeeeqqqqeeeeeee",
"eeee,,,1qqqeeeeeeeeqqqqqqq,,,,eeeeeeeeeee,,,,eeeeqqqqeeeeeee",
"eeee,,,1qqqeeeeeeeeqqqqqqq,,,,eeeeeeeeeee,,,,eeeeqqqqeeeeeee",
"eeee,,,1qqqeeeeeeeeqqqqqqq,,,,eeeeeeeeeee,,,,eeeeqqqqeeeeeee",
"33333336qqqqqqq,,,,,,,<333,,,,,,,,qqqqqqq3333qqqq33333333333",
"33333336qqqqqqq,,,,,,,<333,,,,,,,,qqqqqqq3333qqqq33333333333",
"33333336qqqqqqq,,,,,,,<333,,,,,,,,qqqqqqq3333qqqq33333333333",
"33333336qqqqqqq,,,,,,,<333,,,,,,,,qqqqqqq3333qqqq33333333333",
"3333,,,,,,,3333qqqq3331,,,----qqqqqqq8333,,,,,,,,,,,,,,,,,,,",
"3333,,,,,,,3333qqqq3331,,,----qqqqqqq8333,,,,,,,,,,,,,,,,,,,",
"3333,,,,,,,3333qqqq3331,,,----qqqqqqq8333,,,,,,,,,,,,,,,,,,,",
"++++$$$$$$$++++@@@@***=:::---->>>>;;;&+++$$$$ooooooooooooooo",
"    OOOOOOO        OOO#-----------OOOX   OOOO               ",
"    OOOOOOO        OOO#-----------OOOX   OOOO               ",
"    OOOOOOO        OOO#-----------OOOX   OOOO               "
};
